<?xml version="1.0" encoding="utf-8" standalone="no"?>
<!DOCTYPE svg PUBLIC "-//W3C//DTD SVG 1.1//EN"
  "http://www.w3.org/Graphics/SVG/1.1/DTD/svg11.dtd">
<svg xmlns:xlink="http://www.w3.org/1999/xlink" width="432pt" height="432pt" viewBox="0 0 432 432" xmlns="http://www.w3.org/2000/svg" version="1.1">
 <metadata>
  <rdf:RDF xmlns:dc="http://purl.org/dc/elements/1.1/" xmlns:cc="http://creativecommons.org/ns#" xmlns:rdf="http://www.w3.org/1999/02/22-rdf-syntax-ns#">
   <cc:Work>
    <dc:type rdf:resource="http://purl.org/dc/dcmitype/StillImage"/>
    <dc:date>2024-05-23T15:48:18.483202</dc:date>
    <dc:format>image/svg+xml</dc:format>
    <dc:creator>
     <cc:Agent>
      <dc:title>Matplotlib v3.8.4, https://matplotlib.org/</dc:title>
     </cc:Agent>
    </dc:creator>
   </cc:Work>
  </rdf:RDF>
 </metadata>
 <defs>
  <style type="text/css">*{stroke-linejoin: round; stroke-linecap: butt}</style>
 </defs>
 <g id="figure_1">
  <g id="patch_1">
   <path d="M 0 432 
L 432 432 
L 432 0 
L 0 0 
z
" style="fill: #ffffff"/>
  </g>
  <g id="axes_1">
   <g id="patch_2">
    <path d="M 54 384.48 
L 388.8 384.48 
L 388.8 51.84 
L 54 51.84 
z
" style="fill: #ffffff"/>
   </g>
   <g id="matplotlib.axis_1">
    <g id="xtick_1">
     <g id="line2d_1">
      <path d="M 54 384.48 
L 54 51.84 
" clip-path="url(#pd0fd48fd92)" style="fill: none; stroke: #b0b0b0; stroke-width: 0.8; stroke-linecap: square"/>
     </g>
     <g id="line2d_2">
      <defs>
       <path id="m28c0fdb42d" d="M 0 0 
L 0 -3.5 
" style="stroke: #000000; stroke-width: 0.8"/>
      </defs>
      <g>
       <use xlink:href="#m28c0fdb42d" x="54" y="384.48" style="stroke: #000000; stroke-width: 0.8"/>
      </g>
     </g>
     <g id="text_1">
      <!-- 0.60 -->
      <g transform="translate(42.867188 395.578438) scale(0.1 -0.1)">
       <defs>
        <path id="DejaVuSans-30" d="M 2034 4250 
Q 1547 4250 1301 3770 
Q 1056 3291 1056 2328 
Q 1056 1369 1301 889 
Q 1547 409 2034 409 
Q 2525 409 2770 889 
Q 3016 1369 3016 2328 
Q 3016 3291 2770 3770 
Q 2525 4250 2034 4250 
z
M 2034 4750 
Q 2819 4750 3233 4129 
Q 3647 3509 3647 2328 
Q 3647 1150 3233 529 
Q 2819 -91 2034 -91 
Q 1250 -91 836 529 
Q 422 1150 422 2328 
Q 422 3509 836 4129 
Q 1250 4750 2034 4750 
z
" transform="scale(0.015625)"/>
        <path id="DejaVuSans-2e" d="M 684 794 
L 1344 794 
L 1344 0 
L 684 0 
L 684 794 
z
" transform="scale(0.015625)"/>
        <path id="DejaVuSans-36" d="M 2113 2584 
Q 1688 2584 1439 2293 
Q 1191 2003 1191 1497 
Q 1191 994 1439 701 
Q 1688 409 2113 409 
Q 2538 409 2786 701 
Q 3034 994 3034 1497 
Q 3034 2003 2786 2293 
Q 2538 2584 2113 2584 
z
M 3366 4563 
L 3366 3988 
Q 3128 4100 2886 4159 
Q 2644 4219 2406 4219 
Q 1781 4219 1451 3797 
Q 1122 3375 1075 2522 
Q 1259 2794 1537 2939 
Q 1816 3084 2150 3084 
Q 2853 3084 3261 2657 
Q 3669 2231 3669 1497 
Q 3669 778 3244 343 
Q 2819 -91 2113 -91 
Q 1303 -91 875 529 
Q 447 1150 447 2328 
Q 447 3434 972 4092 
Q 1497 4750 2381 4750 
Q 2619 4750 2861 4703 
Q 3103 4656 3366 4563 
z
" transform="scale(0.015625)"/>
       </defs>
       <use xlink:href="#DejaVuSans-30"/>
       <use xlink:href="#DejaVuSans-2e" x="63.623047"/>
       <use xlink:href="#DejaVuSans-36" x="95.410156"/>
       <use xlink:href="#DejaVuSans-30" x="159.033203"/>
      </g>
     </g>
    </g>
    <g id="xtick_2">
     <g id="line2d_3">
      <path d="M 95.85 384.48 
L 95.85 51.84 
" clip-path="url(#pd0fd48fd92)" style="fill: none; stroke: #b0b0b0; stroke-width: 0.8; stroke-linecap: square"/>
     </g>
     <g id="line2d_4">
      <g>
       <use xlink:href="#m28c0fdb42d" x="95.85" y="384.48" style="stroke: #000000; stroke-width: 0.8"/>
      </g>
     </g>
     <g id="text_2">
      <!-- 0.65 -->
      <g transform="translate(84.717188 395.578438) scale(0.1 -0.1)">
       <defs>
        <path id="DejaVuSans-35" d="M 691 4666 
L 3169 4666 
L 3169 4134 
L 1269 4134 
L 1269 2991 
Q 1406 3038 1543 3061 
Q 1681 3084 1819 3084 
Q 2600 3084 3056 2656 
Q 3513 2228 3513 1497 
Q 3513 744 3044 326 
Q 2575 -91 1722 -91 
Q 1428 -91 1123 -41 
Q 819 9 494 109 
L 494 744 
Q 775 591 1075 516 
Q 1375 441 1709 441 
Q 2250 441 2565 725 
Q 2881 1009 2881 1497 
Q 2881 1984 2565 2268 
Q 2250 2553 1709 2553 
Q 1456 2553 1204 2497 
Q 953 2441 691 2322 
L 691 4666 
z
" transform="scale(0.015625)"/>
       </defs>
       <use xlink:href="#DejaVuSans-30"/>
       <use xlink:href="#DejaVuSans-2e" x="63.623047"/>
       <use xlink:href="#DejaVuSans-36" x="95.410156"/>
       <use xlink:href="#DejaVuSans-35" x="159.033203"/>
      </g>
     </g>
    </g>
    <g id="xtick_3">
     <g id="line2d_5">
      <path d="M 137.7 384.48 
L 137.7 51.84 
" clip-path="url(#pd0fd48fd92)" style="fill: none; stroke: #b0b0b0; stroke-width: 0.8; stroke-linecap: square"/>
     </g>
     <g id="line2d_6">
      <g>
       <use xlink:href="#m28c0fdb42d" x="137.7" y="384.48" style="stroke: #000000; stroke-width: 0.8"/>
      </g>
     </g>
     <g id="text_3">
      <!-- 0.70 -->
      <g transform="translate(126.567188 395.578438) scale(0.1 -0.1)">
       <defs>
        <path id="DejaVuSans-37" d="M 525 4666 
L 3525 4666 
L 3525 4397 
L 1831 0 
L 1172 0 
L 2766 4134 
L 525 4134 
L 525 4666 
z
" transform="scale(0.015625)"/>
       </defs>
       <use xlink:href="#DejaVuSans-30"/>
       <use xlink:href="#DejaVuSans-2e" x="63.623047"/>
       <use xlink:href="#DejaVuSans-37" x="95.410156"/>
       <use xlink:href="#DejaVuSans-30" x="159.033203"/>
      </g>
     </g>
    </g>
    <g id="xtick_4">
     <g id="line2d_7">
      <path d="M 179.55 384.48 
L 179.55 51.84 
" clip-path="url(#pd0fd48fd92)" style="fill: none; stroke: #b0b0b0; stroke-width: 0.8; stroke-linecap: square"/>
     </g>
     <g id="line2d_8">
      <g>
       <use xlink:href="#m28c0fdb42d" x="179.55" y="384.48" style="stroke: #000000; stroke-width: 0.8"/>
      </g>
     </g>
     <g id="text_4">
      <!-- 0.75 -->
      <g transform="translate(168.417187 395.578438) scale(0.1 -0.1)">
       <use xlink:href="#DejaVuSans-30"/>
       <use xlink:href="#DejaVuSans-2e" x="63.623047"/>
       <use xlink:href="#DejaVuSans-37" x="95.410156"/>
       <use xlink:href="#DejaVuSans-35" x="159.033203"/>
      </g>
     </g>
    </g>
    <g id="xtick_5">
     <g id="line2d_9">
      <path d="M 221.4 384.48 
L 221.4 51.84 
" clip-path="url(#pd0fd48fd92)" style="fill: none; stroke: #b0b0b0; stroke-width: 0.8; stroke-linecap: square"/>
     </g>
     <g id="line2d_10">
      <g>
       <use xlink:href="#m28c0fdb42d" x="221.4" y="384.48" style="stroke: #000000; stroke-width: 0.8"/>
      </g>
     </g>
     <g id="text_5">
      <!-- 0.80 -->
      <g transform="translate(210.267187 395.578438) scale(0.1 -0.1)">
       <defs>
        <path id="DejaVuSans-38" d="M 2034 2216 
Q 1584 2216 1326 1975 
Q 1069 1734 1069 1313 
Q 1069 891 1326 650 
Q 1584 409 2034 409 
Q 2484 409 2743 651 
Q 3003 894 3003 1313 
Q 3003 1734 2745 1975 
Q 2488 2216 2034 2216 
z
M 1403 2484 
Q 997 2584 770 2862 
Q 544 3141 544 3541 
Q 544 4100 942 4425 
Q 1341 4750 2034 4750 
Q 2731 4750 3128 4425 
Q 3525 4100 3525 3541 
Q 3525 3141 3298 2862 
Q 3072 2584 2669 2484 
Q 3125 2378 3379 2068 
Q 3634 1759 3634 1313 
Q 3634 634 3220 271 
Q 2806 -91 2034 -91 
Q 1263 -91 848 271 
Q 434 634 434 1313 
Q 434 1759 690 2068 
Q 947 2378 1403 2484 
z
M 1172 3481 
Q 1172 3119 1398 2916 
Q 1625 2713 2034 2713 
Q 2441 2713 2670 2916 
Q 2900 3119 2900 3481 
Q 2900 3844 2670 4047 
Q 2441 4250 2034 4250 
Q 1625 4250 1398 4047 
Q 1172 3844 1172 3481 
z
" transform="scale(0.015625)"/>
       </defs>
       <use xlink:href="#DejaVuSans-30"/>
       <use xlink:href="#DejaVuSans-2e" x="63.623047"/>
       <use xlink:href="#DejaVuSans-38" x="95.410156"/>
       <use xlink:href="#DejaVuSans-30" x="159.033203"/>
      </g>
     </g>
    </g>
    <g id="xtick_6">
     <g id="line2d_11">
      <path d="M 263.25 384.48 
L 263.25 51.84 
" clip-path="url(#pd0fd48fd92)" style="fill: none; stroke: #b0b0b0; stroke-width: 0.8; stroke-linecap: square"/>
     </g>
     <g id="line2d_12">
      <g>
       <use xlink:href="#m28c0fdb42d" x="263.25" y="384.48" style="stroke: #000000; stroke-width: 0.8"/>
      </g>
     </g>
     <g id="text_6">
      <!-- 0.85 -->
      <g transform="translate(252.117188 395.578438) scale(0.1 -0.1)">
       <use xlink:href="#DejaVuSans-30"/>
       <use xlink:href="#DejaVuSans-2e" x="63.623047"/>
       <use xlink:href="#DejaVuSans-38" x="95.410156"/>
       <use xlink:href="#DejaVuSans-35" x="159.033203"/>
      </g>
     </g>
    </g>
    <g id="xtick_7">
     <g id="line2d_13">
      <path d="M 305.1 384.48 
L 305.1 51.84 
" clip-path="url(#pd0fd48fd92)" style="fill: none; stroke: #b0b0b0; stroke-width: 0.8; stroke-linecap: square"/>
     </g>
     <g id="line2d_14">
      <g>
       <use xlink:href="#m28c0fdb42d" x="305.1" y="384.48" style="stroke: #000000; stroke-width: 0.8"/>
      </g>
     </g>
     <g id="text_7">
      <!-- 0.90 -->
      <g transform="translate(293.967188 395.578438) scale(0.1 -0.1)">
       <defs>
        <path id="DejaVuSans-39" d="M 703 97 
L 703 672 
Q 941 559 1184 500 
Q 1428 441 1663 441 
Q 2288 441 2617 861 
Q 2947 1281 2994 2138 
Q 2813 1869 2534 1725 
Q 2256 1581 1919 1581 
Q 1219 1581 811 2004 
Q 403 2428 403 3163 
Q 403 3881 828 4315 
Q 1253 4750 1959 4750 
Q 2769 4750 3195 4129 
Q 3622 3509 3622 2328 
Q 3622 1225 3098 567 
Q 2575 -91 1691 -91 
Q 1453 -91 1209 -44 
Q 966 3 703 97 
z
M 1959 2075 
Q 2384 2075 2632 2365 
Q 2881 2656 2881 3163 
Q 2881 3666 2632 3958 
Q 2384 4250 1959 4250 
Q 1534 4250 1286 3958 
Q 1038 3666 1038 3163 
Q 1038 2656 1286 2365 
Q 1534 2075 1959 2075 
z
" transform="scale(0.015625)"/>
       </defs>
       <use xlink:href="#DejaVuSans-30"/>
       <use xlink:href="#DejaVuSans-2e" x="63.623047"/>
       <use xlink:href="#DejaVuSans-39" x="95.410156"/>
       <use xlink:href="#DejaVuSans-30" x="159.033203"/>
      </g>
     </g>
    </g>
    <g id="xtick_8">
     <g id="line2d_15">
      <path d="M 346.95 384.48 
L 346.95 51.84 
" clip-path="url(#pd0fd48fd92)" style="fill: none; stroke: #b0b0b0; stroke-width: 0.8; stroke-linecap: square"/>
     </g>
     <g id="line2d_16">
      <g>
       <use xlink:href="#m28c0fdb42d" x="346.95" y="384.48" style="stroke: #000000; stroke-width: 0.8"/>
      </g>
     </g>
     <g id="text_8">
      <!-- 0.95 -->
      <g transform="translate(335.817188 395.578438) scale(0.1 -0.1)">
       <use xlink:href="#DejaVuSans-30"/>
       <use xlink:href="#DejaVuSans-2e" x="63.623047"/>
       <use xlink:href="#DejaVuSans-39" x="95.410156"/>
       <use xlink:href="#DejaVuSans-35" x="159.033203"/>
      </g>
     </g>
    </g>
    <g id="xtick_9">
     <g id="line2d_17">
      <path d="M 388.8 384.48 
L 388.8 51.84 
" clip-path="url(#pd0fd48fd92)" style="fill: none; stroke: #b0b0b0; stroke-width: 0.8; stroke-linecap: square"/>
     </g>
     <g id="line2d_18">
      <g>
       <use xlink:href="#m28c0fdb42d" x="388.8" y="384.48" style="stroke: #000000; stroke-width: 0.8"/>
      </g>
     </g>
     <g id="text_9">
      <!-- 1.00 -->
      <g transform="translate(377.667187 395.578438) scale(0.1 -0.1)">
       <defs>
        <path id="DejaVuSans-31" d="M 794 531 
L 1825 531 
L 1825 4091 
L 703 3866 
L 703 4441 
L 1819 4666 
L 2450 4666 
L 2450 531 
L 3481 531 
L 3481 0 
L 794 0 
L 794 531 
z
" transform="scale(0.015625)"/>
       </defs>
       <use xlink:href="#DejaVuSans-31"/>
       <use xlink:href="#DejaVuSans-2e" x="63.623047"/>
       <use xlink:href="#DejaVuSans-30" x="95.410156"/>
       <use xlink:href="#DejaVuSans-30" x="159.033203"/>
      </g>
     </g>
    </g>
    <g id="text_10">
     <!-- $x_{\rm{CO2}}$ -->
     <g transform="translate(210.85 409.256563) scale(0.1 -0.1)">
      <defs>
       <path id="DejaVuSans-Oblique-78" d="M 3841 3500 
L 2234 1784 
L 3219 0 
L 2559 0 
L 1819 1388 
L 531 0 
L -166 0 
L 1556 1844 
L 641 3500 
L 1300 3500 
L 1972 2234 
L 3144 3500 
L 3841 3500 
z
" transform="scale(0.015625)"/>
       <path id="DejaVuSans-43" d="M 4122 4306 
L 4122 3641 
Q 3803 3938 3442 4084 
Q 3081 4231 2675 4231 
Q 1875 4231 1450 3742 
Q 1025 3253 1025 2328 
Q 1025 1406 1450 917 
Q 1875 428 2675 428 
Q 3081 428 3442 575 
Q 3803 722 4122 1019 
L 4122 359 
Q 3791 134 3420 21 
Q 3050 -91 2638 -91 
Q 1578 -91 968 557 
Q 359 1206 359 2328 
Q 359 3453 968 4101 
Q 1578 4750 2638 4750 
Q 3056 4750 3426 4639 
Q 3797 4528 4122 4306 
z
" transform="scale(0.015625)"/>
       <path id="DejaVuSans-4f" d="M 2522 4238 
Q 1834 4238 1429 3725 
Q 1025 3213 1025 2328 
Q 1025 1447 1429 934 
Q 1834 422 2522 422 
Q 3209 422 3611 934 
Q 4013 1447 4013 2328 
Q 4013 3213 3611 3725 
Q 3209 4238 2522 4238 
z
M 2522 4750 
Q 3503 4750 4090 4092 
Q 4678 3434 4678 2328 
Q 4678 1225 4090 567 
Q 3503 -91 2522 -91 
Q 1538 -91 948 565 
Q 359 1222 359 2328 
Q 359 3434 948 4092 
Q 1538 4750 2522 4750 
z
" transform="scale(0.015625)"/>
       <path id="DejaVuSans-32" d="M 1228 531 
L 3431 531 
L 3431 0 
L 469 0 
L 469 531 
Q 828 903 1448 1529 
Q 2069 2156 2228 2338 
Q 2531 2678 2651 2914 
Q 2772 3150 2772 3378 
Q 2772 3750 2511 3984 
Q 2250 4219 1831 4219 
Q 1534 4219 1204 4116 
Q 875 4013 500 3803 
L 500 4441 
Q 881 4594 1212 4672 
Q 1544 4750 1819 4750 
Q 2544 4750 2975 4387 
Q 3406 4025 3406 3419 
Q 3406 3131 3298 2873 
Q 3191 2616 2906 2266 
Q 2828 2175 2409 1742 
Q 1991 1309 1228 531 
z
" transform="scale(0.015625)"/>
      </defs>
      <use xlink:href="#DejaVuSans-Oblique-78" transform="translate(0 0.3125)"/>
      <use xlink:href="#DejaVuSans-43" transform="translate(59.179688 -16.09375) scale(0.7)"/>
      <use xlink:href="#DejaVuSans-4f" transform="translate(108.056641 -16.09375) scale(0.7)"/>
      <use xlink:href="#DejaVuSans-32" transform="translate(163.154297 -16.09375) scale(0.7)"/>
     </g>
    </g>
   </g>
   <g id="matplotlib.axis_2">
    <g id="ytick_1">
     <g id="line2d_19">
      <path d="M 54 384.48 
L 388.8 384.48 
" clip-path="url(#pd0fd48fd92)" style="fill: none; stroke: #b0b0b0; stroke-width: 0.8; stroke-linecap: square"/>
     </g>
     <g id="line2d_20">
      <defs>
       <path id="m790dbec01b" d="M 0 0 
L 3.5 0 
" style="stroke: #000000; stroke-width: 0.8"/>
      </defs>
      <g>
       <use xlink:href="#m790dbec01b" x="54" y="384.48" style="stroke: #000000; stroke-width: 0.8"/>
      </g>
     </g>
     <g id="text_11">
      <!-- 3 -->
      <g transform="translate(44.1375 388.279219) scale(0.1 -0.1)">
       <defs>
        <path id="DejaVuSans-33" d="M 2597 2516 
Q 3050 2419 3304 2112 
Q 3559 1806 3559 1356 
Q 3559 666 3084 287 
Q 2609 -91 1734 -91 
Q 1441 -91 1130 -33 
Q 819 25 488 141 
L 488 750 
Q 750 597 1062 519 
Q 1375 441 1716 441 
Q 2309 441 2620 675 
Q 2931 909 2931 1356 
Q 2931 1769 2642 2001 
Q 2353 2234 1838 2234 
L 1294 2234 
L 1294 2753 
L 1863 2753 
Q 2328 2753 2575 2939 
Q 2822 3125 2822 3475 
Q 2822 3834 2567 4026 
Q 2313 4219 1838 4219 
Q 1578 4219 1281 4162 
Q 984 4106 628 3988 
L 628 4550 
Q 988 4650 1302 4700 
Q 1616 4750 1894 4750 
Q 2613 4750 3031 4423 
Q 3450 4097 3450 3541 
Q 3450 3153 3228 2886 
Q 3006 2619 2597 2516 
z
" transform="scale(0.015625)"/>
       </defs>
       <use xlink:href="#DejaVuSans-33"/>
      </g>
     </g>
    </g>
    <g id="ytick_2">
     <g id="line2d_21">
      <path d="M 54 329.04 
L 388.8 329.04 
" clip-path="url(#pd0fd48fd92)" style="fill: none; stroke: #b0b0b0; stroke-width: 0.8; stroke-linecap: square"/>
     </g>
     <g id="line2d_22">
      <g>
       <use xlink:href="#m790dbec01b" x="54" y="329.04" style="stroke: #000000; stroke-width: 0.8"/>
      </g>
     </g>
     <g id="text_12">
      <!-- 4 -->
      <g transform="translate(44.1375 332.839219) scale(0.1 -0.1)">
       <defs>
        <path id="DejaVuSans-34" d="M 2419 4116 
L 825 1625 
L 2419 1625 
L 2419 4116 
z
M 2253 4666 
L 3047 4666 
L 3047 1625 
L 3713 1625 
L 3713 1100 
L 3047 1100 
L 3047 0 
L 2419 0 
L 2419 1100 
L 313 1100 
L 313 1709 
L 2253 4666 
z
" transform="scale(0.015625)"/>
       </defs>
       <use xlink:href="#DejaVuSans-34"/>
      </g>
     </g>
    </g>
    <g id="ytick_3">
     <g id="line2d_23">
      <path d="M 54 273.6 
L 388.8 273.6 
" clip-path="url(#pd0fd48fd92)" style="fill: none; stroke: #b0b0b0; stroke-width: 0.8; stroke-linecap: square"/>
     </g>
     <g id="line2d_24">
      <g>
       <use xlink:href="#m790dbec01b" x="54" y="273.6" style="stroke: #000000; stroke-width: 0.8"/>
      </g>
     </g>
     <g id="text_13">
      <!-- 5 -->
      <g transform="translate(44.1375 277.399219) scale(0.1 -0.1)">
       <use xlink:href="#DejaVuSans-35"/>
      </g>
     </g>
    </g>
    <g id="ytick_4">
     <g id="line2d_25">
      <path d="M 54 218.16 
L 388.8 218.16 
" clip-path="url(#pd0fd48fd92)" style="fill: none; stroke: #b0b0b0; stroke-width: 0.8; stroke-linecap: square"/>
     </g>
     <g id="line2d_26">
      <g>
       <use xlink:href="#m790dbec01b" x="54" y="218.16" style="stroke: #000000; stroke-width: 0.8"/>
      </g>
     </g>
     <g id="text_14">
      <!-- 6 -->
      <g transform="translate(44.1375 221.959219) scale(0.1 -0.1)">
       <use xlink:href="#DejaVuSans-36"/>
      </g>
     </g>
    </g>
    <g id="ytick_5">
     <g id="line2d_27">
      <path d="M 54 162.72 
L 388.8 162.72 
" clip-path="url(#pd0fd48fd92)" style="fill: none; stroke: #b0b0b0; stroke-width: 0.8; stroke-linecap: square"/>
     </g>
     <g id="line2d_28">
      <g>
       <use xlink:href="#m790dbec01b" x="54" y="162.72" style="stroke: #000000; stroke-width: 0.8"/>
      </g>
     </g>
     <g id="text_15">
      <!-- 7 -->
      <g transform="translate(44.1375 166.519219) scale(0.1 -0.1)">
       <use xlink:href="#DejaVuSans-37"/>
      </g>
     </g>
    </g>
    <g id="ytick_6">
     <g id="line2d_29">
      <path d="M 54 107.28 
L 388.8 107.28 
" clip-path="url(#pd0fd48fd92)" style="fill: none; stroke: #b0b0b0; stroke-width: 0.8; stroke-linecap: square"/>
     </g>
     <g id="line2d_30">
      <g>
       <use xlink:href="#m790dbec01b" x="54" y="107.28" style="stroke: #000000; stroke-width: 0.8"/>
      </g>
     </g>
     <g id="text_16">
      <!-- 8 -->
      <g transform="translate(44.1375 111.079219) scale(0.1 -0.1)">
       <use xlink:href="#DejaVuSans-38"/>
      </g>
     </g>
    </g>
    <g id="ytick_7">
     <g id="line2d_31">
      <path d="M 54 51.84 
L 388.8 51.84 
" clip-path="url(#pd0fd48fd92)" style="fill: none; stroke: #b0b0b0; stroke-width: 0.8; stroke-linecap: square"/>
     </g>
     <g id="line2d_32">
      <g>
       <use xlink:href="#m790dbec01b" x="54" y="51.84" style="stroke: #000000; stroke-width: 0.8"/>
      </g>
     </g>
     <g id="text_17">
      <!-- 9 -->
      <g transform="translate(44.1375 55.639219) scale(0.1 -0.1)">
       <use xlink:href="#DejaVuSans-39"/>
      </g>
     </g>
    </g>
    <g id="text_18">
     <!-- $P (MPa)$ -->
     <g transform="translate(38.057812 235.51) rotate(-90) scale(0.1 -0.1)">
      <defs>
       <path id="DejaVuSans-Oblique-50" d="M 1081 4666 
L 2541 4666 
Q 3178 4666 3512 4369 
Q 3847 4072 3847 3500 
Q 3847 2731 3353 2303 
Q 2859 1875 1966 1875 
L 1172 1875 
L 806 0 
L 172 0 
L 1081 4666 
z
M 1613 4147 
L 1275 2394 
L 2069 2394 
Q 2606 2394 2893 2669 
Q 3181 2944 3181 3456 
Q 3181 3784 2986 3965 
Q 2791 4147 2438 4147 
L 1613 4147 
z
" transform="scale(0.015625)"/>
       <path id="DejaVuSans-28" d="M 1984 4856 
Q 1566 4138 1362 3434 
Q 1159 2731 1159 2009 
Q 1159 1288 1364 580 
Q 1569 -128 1984 -844 
L 1484 -844 
Q 1016 -109 783 600 
Q 550 1309 550 2009 
Q 550 2706 781 3412 
Q 1013 4119 1484 4856 
L 1984 4856 
z
" transform="scale(0.015625)"/>
       <path id="DejaVuSans-Oblique-4d" d="M 1081 4666 
L 2028 4666 
L 2572 1522 
L 4378 4666 
L 5350 4666 
L 4441 0 
L 3828 0 
L 4622 4091 
L 2791 897 
L 2175 897 
L 1581 4103 
L 788 0 
L 172 0 
L 1081 4666 
z
" transform="scale(0.015625)"/>
       <path id="DejaVuSans-Oblique-61" d="M 3438 1997 
L 3047 0 
L 2472 0 
L 2578 531 
Q 2325 219 2001 64 
Q 1678 -91 1281 -91 
Q 834 -91 548 182 
Q 263 456 263 884 
Q 263 1497 752 1853 
Q 1241 2209 2100 2209 
L 2900 2209 
L 2931 2363 
Q 2938 2388 2941 2417 
Q 2944 2447 2944 2509 
Q 2944 2788 2717 2942 
Q 2491 3097 2081 3097 
Q 1800 3097 1504 3025 
Q 1209 2953 897 2809 
L 997 3341 
Q 1322 3463 1633 3523 
Q 1944 3584 2234 3584 
Q 2853 3584 3176 3315 
Q 3500 3047 3500 2534 
Q 3500 2431 3484 2292 
Q 3469 2153 3438 1997 
z
M 2816 1759 
L 2241 1759 
Q 1534 1759 1195 1570 
Q 856 1381 856 984 
Q 856 709 1029 553 
Q 1203 397 1509 397 
Q 1978 397 2328 733 
Q 2678 1069 2791 1631 
L 2816 1759 
z
" transform="scale(0.015625)"/>
       <path id="DejaVuSans-29" d="M 513 4856 
L 1013 4856 
Q 1481 4119 1714 3412 
Q 1947 2706 1947 2009 
Q 1947 1309 1714 600 
Q 1481 -109 1013 -844 
L 513 -844 
Q 928 -128 1133 580 
Q 1338 1288 1338 2009 
Q 1338 2731 1133 3434 
Q 928 4138 513 4856 
z
" transform="scale(0.015625)"/>
      </defs>
      <use xlink:href="#DejaVuSans-Oblique-50" transform="translate(0 0.125)"/>
      <use xlink:href="#DejaVuSans-28" transform="translate(60.302734 0.125)"/>
      <use xlink:href="#DejaVuSans-Oblique-4d" transform="translate(99.316406 0.125)"/>
      <use xlink:href="#DejaVuSans-Oblique-50" transform="translate(185.595703 0.125)"/>
      <use xlink:href="#DejaVuSans-Oblique-61" transform="translate(245.898438 0.125)"/>
      <use xlink:href="#DejaVuSans-29" transform="translate(307.177734 0.125)"/>
     </g>
    </g>
   </g>
   <g id="line2d_33">
    <path d="M 388.8 358.485195 
L 378.861993 341.979999 
L 368.622387 325.395621 
L 358.569144 309.528847 
L 348.399178 293.896604 
L 338.480429 279.056108 
L 328.076022 263.919666 
L 318.720049 250.685667 
L 309.557104 238.0718 
L 300.885808 226.452214 
L 290.991602 213.572915 
L 281.921816 202.12396 
L 271.632395 189.552793 
L 263.489582 179.922012 
L 254.34431 169.44461 
L 245.002302 159.117744 
L 235.326459 148.83008 
L 226.504 139.820054 
L 217.622689 131.116189 
L 209.856796 123.815388 
L 201.910177 116.653846 
L 193.57458 109.49034 
L 187.090176 104.174526 
L 179.234443 98.049492 
L 172.294418 92.939785 
L 164.775752 87.742078 
L 157.262247 82.922803 
L 152.256478 79.934471 
L 147.253617 77.137727 
L 142.253996 74.544761 
L 137.25802 72.169919 
L 132.266187 70.030249 
L 127.279115 68.146243 
L 122.29759 66.542869 
L 117.322627 65.251045 
L 112.355577 64.30981 
L 107.39829 63.769662 
L 104.198932 63.664597 
L 104.198932 63.664597 
" clip-path="url(#pd0fd48fd92)" style="fill: none; stroke: #0000ff; stroke-width: 1.5; stroke-linecap: square"/>
   </g>
   <g id="line2d_34">
    <path d="M 388.8 358.485195 
L 375.323962 354.281163 
L 361.560271 349.792814 
L 346.536885 344.651616 
L 334.018877 340.159526 
L 321.502344 335.463606 
L 308.98743 330.548159 
L 296.474298 325.395621 
L 283.963141 319.986243 
L 271.454187 314.297682 
L 261.44879 309.528847 
L 251.445138 304.550413 
L 241.443423 299.345874 
L 231.44387 293.896604 
L 221.44675 288.181436 
L 211.452386 282.176136 
L 201.461177 275.852708 
L 193.97013 270.881922 
L 186.481384 265.698041 
L 178.995241 260.282929 
L 171.51207 254.615705 
L 164.032324 248.672086 
L 156.556571 242.423502 
L 149.085534 235.835874 
L 141.620152 228.867884 
L 134.161681 221.468456 
L 129.19403 216.264599 
L 124.230879 210.816972 
L 119.273099 205.096899 
L 113.094949 197.521286 
L 108.632186 191.689852 
L 103.792998 184.962881 
L 100.379966 179.922012 
L 95.961242 172.957923 
L 92.772455 167.562453 
L 89.366146 161.373177 
L 85.803131 154.298242 
L 82.579834 147.181687 
L 80.380433 141.780667 
L 78.148457 135.644406 
L 76.331245 129.915356 
L 75.098691 125.436185 
L 73.915718 120.372747 
L 72.872622 114.688687 
L 72.206494 109.49034 
L 71.904998 105.578644 
L 71.793605 101.213449 
L 71.877632 98.049492 
L 72.13699 94.689236 
L 72.621706 91.166744 
L 73.334762 87.742078 
L 74.274815 84.485491 
L 75.448655 81.405378 
L 76.864855 78.511434 
L 78.53407 75.814931 
L 80.469451 73.32908 
L 82.687189 71.069498 
L 85.207252 69.054847 
L 88.054409 67.307705 
L 89.610045 66.542869 
L 91.259677 65.855796 
L 93.008504 65.251045 
L 94.862431 64.733766 
L 96.828206 64.30981 
L 98.913586 63.98587 
L 101.127554 63.769662 
L 104.198932 63.664597 
L 104.198932 63.664597 
" clip-path="url(#pd0fd48fd92)" style="fill: none; stroke: #ff0000; stroke-width: 1.5; stroke-linecap: square"/>
   </g>
   <g id="line2d_35">
    <path d="M 388.8 301.592102 
L 379.235243 285.895178 
L 369.494852 270.329003 
L 360.102043 255.722701 
L 350.357928 240.9947 
L 341.686675 228.25684 
L 333.274366 216.236129 
L 323.690064 202.952133 
L 314.523094 190.665315 
L 306.154603 179.815071 
L 297.819254 169.364956 
L 289.441473 159.231933 
L 281.020076 149.433728 
L 273.364235 140.877055 
L 266.542492 133.546348 
L 260.483145 127.277352 
L 253.495688 120.345148 
L 245.975593 113.26057 
L 238.461954 106.599359 
L 233.456984 102.41097 
L 228.455796 98.439251 
L 223.458919 94.699553 
L 218.467026 91.210402 
L 213.480982 87.994498 
L 208.501932 85.080161 
L 203.531425 82.503511 
L 198.571642 80.311895 
L 196.096714 79.379665 
L 193.625776 78.569574 
L 191.159508 77.893934 
L 188.698781 77.367814 
L 186.244742 77.010007 
L 183.158874 76.836454 
L 183.158874 76.836454 
" clip-path="url(#pd0fd48fd92)" style="fill: none; stroke: #0000ff; stroke-width: 1.5; stroke-linecap: square"/>
   </g>
   <g id="line2d_36">
    <path d="M 388.8 301.592102 
L 377.543057 296.665596 
L 366.88514 291.809121 
L 354.464369 285.895178 
L 344.4605 280.917478 
L 334.458622 275.734043 
L 324.458972 270.329003 
L 314.461832 264.684401 
L 304.467545 258.779759 
L 294.476528 252.591523 
L 284.489299 246.092321 
L 277.001751 240.9947 
L 269.51704 235.688388 
L 262.035582 230.155207 
L 254.557897 224.373996 
L 247.084636 218.319827 
L 239.616636 211.962893 
L 232.154999 205.266933 
L 224.701207 198.186892 
L 219.737362 193.225778 
L 214.778729 188.047606 
L 209.826389 182.626498 
L 204.881789 176.930181 
L 198.719996 169.364956 
L 194.296657 163.551617 
L 189.588368 156.930702 
L 186.333153 152.033564 
L 183.029436 146.731079 
L 179.654719 140.877055 
L 176.80895 135.487498 
L 173.928699 129.441563 
L 172.050911 125.039028 
L 170.267016 120.345148 
L 168.704151 115.576584 
L 167.463022 110.991538 
L 166.545088 106.599359 
L 165.954351 102.41097 
L 165.697748 98.439251 
L 165.785718 94.699553 
L 166.232986 91.210402 
L 167.059722 87.994498 
L 167.623584 86.497591 
L 168.293235 85.080161 
L 169.073627 83.746981 
L 169.970555 82.503511 
L 170.990833 81.356042 
L 172.142531 80.311895 
L 173.435274 79.379665 
L 174.880657 78.569574 
L 176.492816 77.893934 
L 178.289223 77.367814 
L 180.291851 77.010007 
L 183.158874 76.836454 
L 183.158874 76.836454 
" clip-path="url(#pd0fd48fd92)" style="fill: none; stroke: #ff0000; stroke-width: 1.5; stroke-linecap: square"/>
   </g>
   <g id="line2d_37">
    <path d="M 388.8 233.029051 
L 388.799163 233.027722 
L 388.466817 232.500477 
L 388.000996 231.76249 
L 387.412251 230.831449 
L 386.793013 229.854225 
L 386.141661 228.828586 
L 385.456487 227.752198 
L 384.735689 226.622631 
L 383.977368 225.437348 
L 383.179518 224.193713 
L 382.340028 222.88898 
L 381.456671 221.520302 
L 380.527101 220.084723 
L 379.548846 218.579184 
L 378.519301 217.000526 
L 377.435728 215.345491 
L 376.295243 213.610728 
L 375.120373 211.831422 
L 373.924473 210.028397 
L 372.706743 208.200934 
L 371.466329 206.34827 
L 370.20232 204.4696 
L 368.913739 202.564064 
L 367.59954 200.630749 
L 366.258597 198.668682 
L 364.889697 196.676822 
L 363.491531 194.654052 
L 362.062679 192.599174 
L 360.601598 190.510896 
L 359.106609 188.387822 
L 357.575871 186.228437 
L 356.007367 184.031094 
L 354.398872 181.793994 
L 352.747923 179.515161 
L 351.05178 177.192419 
L 349.307378 174.823359 
L 347.511273 172.405293 
L 345.659562 169.935214 
L 343.7478 167.409725 
L 341.770875 164.824962 
L 339.722864 162.176495 
L 337.596825 159.459192 
L 335.384534 156.667038 
L 333.076117 153.792897 
L 330.662658 150.831984 
L 328.158727 147.808923 
L 325.655938 144.838422 
L 323.154373 141.922146 
L 320.654125 139.061926 
L 318.1553 136.25979 
L 315.658024 133.517995 
L 313.162438 130.839063 
L 310.668708 128.225828 
L 308.177032 125.681495 
L 305.687641 123.209714 
L 303.200811 120.814675 
L 300.71688 118.501227 
L 298.236258 116.275043 
L 295.759453 114.142831 
L 293.28711 112.112635 
L 290.820055 110.194248 
L 288.359373 108.399814 
L 285.906529 106.744731 
L 283.463567 105.249053 
L 281.051013 103.948532 
L 278.696336 102.885158 
L 276.432553 102.105904 
L 274.299095 101.662907 
L 273.058988 101.582058 
" clip-path="url(#pd0fd48fd92)" style="fill: none; stroke: #0000ff; stroke-width: 1.5; stroke-linecap: square"/>
   </g>
   <g id="line2d_38">
    <path d="M 388.8 233.029051 
L 388.797838 233.027722 
L 387.941551 232.500477 
L 386.748549 231.76249 
L 385.252643 230.831449 
L 383.693488 229.854225 
L 382.069067 228.828586 
L 380.377379 227.752198 
L 378.616443 226.622631 
L 376.784315 225.437348 
L 374.8791 224.193713 
L 372.898972 222.88898 
L 370.842189 221.520302 
L 368.707114 220.084723 
L 366.492242 218.579184 
L 364.196224 217.000526 
L 361.817893 215.345491 
L 359.356302 213.610728 
L 356.86447 211.831422 
L 354.37314 210.028397 
L 351.882342 208.200934 
L 349.392107 206.34827 
L 346.902469 204.4696 
L 344.413465 202.564064 
L 341.925137 200.630749 
L 339.437528 198.668682 
L 336.950688 196.676822 
L 334.464673 194.654052 
L 331.979543 192.599174 
L 329.495365 190.510896 
L 327.012216 188.387822 
L 324.530181 186.228437 
L 322.049355 184.031094 
L 319.569848 181.793994 
L 317.091785 179.515161 
L 314.615307 177.192419 
L 312.14058 174.823359 
L 309.667796 172.405293 
L 307.197179 169.935214 
L 304.728996 167.409725 
L 302.263566 164.824962 
L 299.801271 162.176495 
L 297.342583 159.459192 
L 294.888084 156.667038 
L 292.438513 153.792897 
L 289.997904 150.831984 
L 287.594583 147.808923 
L 285.322306 144.838422 
L 283.180161 141.922146 
L 281.16757 139.061926 
L 279.284319 136.25979 
L 277.530587 133.517995 
L 275.906992 130.839063 
L 274.414643 128.225828 
L 273.055207 125.681495 
L 271.831002 123.209714 
L 270.745106 120.814675 
L 269.801513 118.501227 
L 269.005328 116.275043 
L 268.363039 114.142831 
L 267.882887 112.112635 
L 267.57539 110.194248 
L 267.454102 108.399814 
L 267.536743 106.744731 
L 267.846968 105.249053 
L 268.412077 103.948532 
L 269.26099 102.885158 
L 270.424055 102.105904 
L 271.932788 101.662907 
L 273.058988 101.582058 
" clip-path="url(#pd0fd48fd92)" style="fill: none; stroke: #ff0000; stroke-width: 1.5; stroke-linecap: square"/>
   </g>
   <g id="patch_3">
    <path d="M 54 384.48 
L 54 51.84 
" style="fill: none; stroke: #000000; stroke-width: 0.8; stroke-linejoin: miter; stroke-linecap: square"/>
   </g>
   <g id="patch_4">
    <path d="M 388.8 384.48 
L 388.8 51.84 
" style="fill: none; stroke: #000000; stroke-width: 0.8; stroke-linejoin: miter; stroke-linecap: square"/>
   </g>
   <g id="patch_5">
    <path d="M 54 384.48 
L 388.8 384.48 
" style="fill: none; stroke: #000000; stroke-width: 0.8; stroke-linejoin: miter; stroke-linecap: square"/>
   </g>
   <g id="patch_6">
    <path d="M 54 51.84 
L 388.8 51.84 
" style="fill: none; stroke: #000000; stroke-width: 0.8; stroke-linejoin: miter; stroke-linecap: square"/>
   </g>
   <g id="text_19">
    <!-- 0 °C -->
    <g style="fill: #ff0000" transform="translate(106.782443 190.595505) rotate(-320) scale(0.1 -0.1)">
     <defs>
      <path id="DejaVuSans-20" transform="scale(0.015625)"/>
      <path id="DejaVuSans-b0" d="M 1600 4347 
Q 1350 4347 1178 4173 
Q 1006 4000 1006 3750 
Q 1006 3503 1178 3333 
Q 1350 3163 1600 3163 
Q 1850 3163 2022 3333 
Q 2194 3503 2194 3750 
Q 2194 3997 2020 4172 
Q 1847 4347 1600 4347 
z
M 1600 4750 
Q 1800 4750 1984 4673 
Q 2169 4597 2303 4453 
Q 2447 4313 2519 4134 
Q 2591 3956 2591 3750 
Q 2591 3338 2302 3052 
Q 2013 2766 1594 2766 
Q 1172 2766 890 3047 
Q 609 3328 609 3750 
Q 609 4169 896 4459 
Q 1184 4750 1600 4750 
z
" transform="scale(0.015625)"/>
     </defs>
     <use xlink:href="#DejaVuSans-30"/>
     <use xlink:href="#DejaVuSans-20" x="63.623047"/>
     <use xlink:href="#DejaVuSans-b0" x="95.410156"/>
     <use xlink:href="#DejaVuSans-43" x="145.410156"/>
    </g>
   </g>
   <g id="text_20">
    <!-- 10 °C -->
    <g style="fill: #ff0000" transform="translate(201.283737 170.111168) rotate(-320) scale(0.1 -0.1)">
     <use xlink:href="#DejaVuSans-31"/>
     <use xlink:href="#DejaVuSans-30" x="63.623047"/>
     <use xlink:href="#DejaVuSans-20" x="127.246094"/>
     <use xlink:href="#DejaVuSans-b0" x="159.033203"/>
     <use xlink:href="#DejaVuSans-43" x="209.033203"/>
    </g>
   </g>
   <g id="text_21">
    <!-- 20 °C -->
    <g style="fill: #ff0000" transform="translate(298.67938 158.653011) rotate(-320) scale(0.1 -0.1)">
     <use xlink:href="#DejaVuSans-32"/>
     <use xlink:href="#DejaVuSans-30" x="63.623047"/>
     <use xlink:href="#DejaVuSans-20" x="127.246094"/>
     <use xlink:href="#DejaVuSans-b0" x="159.033203"/>
     <use xlink:href="#DejaVuSans-43" x="209.033203"/>
    </g>
   </g>
  </g>
 </g>
 <defs>
  <clipPath id="pd0fd48fd92">
   <rect x="54" y="51.84" width="334.8" height="332.64"/>
  </clipPath>
 </defs>
</svg>
