<?xml version="1.0" encoding="utf-8" standalone="no"?>
<!DOCTYPE svg PUBLIC "-//W3C//DTD SVG 1.1//EN"
  "http://www.w3.org/Graphics/SVG/1.1/DTD/svg11.dtd">
<svg xmlns:xlink="http://www.w3.org/1999/xlink" width="432pt" height="432pt" viewBox="0 0 432 432" xmlns="http://www.w3.org/2000/svg" version="1.1">
 <metadata>
  <rdf:RDF xmlns:dc="http://purl.org/dc/elements/1.1/" xmlns:cc="http://creativecommons.org/ns#" xmlns:rdf="http://www.w3.org/1999/02/22-rdf-syntax-ns#">
   <cc:Work>
    <dc:type rdf:resource="http://purl.org/dc/dcmitype/StillImage"/>
    <dc:date>2024-05-23T17:02:16.365159</dc:date>
    <dc:format>image/svg+xml</dc:format>
    <dc:creator>
     <cc:Agent>
      <dc:title>Matplotlib v3.8.4, https://matplotlib.org/</dc:title>
     </cc:Agent>
    </dc:creator>
   </cc:Work>
  </rdf:RDF>
 </metadata>
 <defs>
  <style type="text/css">*{stroke-linejoin: round; stroke-linecap: butt}</style>
 </defs>
 <g id="figure_1">
  <g id="patch_1">
   <path d="M 0 432 
L 432 432 
L 432 0 
L 0 0 
z
" style="fill: #ffffff"/>
  </g>
  <g id="axes_1">
   <g id="patch_2">
    <path d="M 54 384.48 
L 388.8 384.48 
L 388.8 51.84 
L 54 51.84 
z
" style="fill: #ffffff"/>
   </g>
   <g id="matplotlib.axis_1">
    <g id="xtick_1">
     <g id="line2d_1">
      <path d="M 54 384.48 
L 54 51.84 
" clip-path="url(#pcce95a43ee)" style="fill: none; stroke: #b0b0b0; stroke-width: 0.8; stroke-linecap: square"/>
     </g>
     <g id="line2d_2">
      <defs>
       <path id="mbeab1e2a26" d="M 0 0 
L 0 -3.5 
" style="stroke: #000000; stroke-width: 0.8"/>
      </defs>
      <g>
       <use xlink:href="#mbeab1e2a26" x="54" y="384.48" style="stroke: #000000; stroke-width: 0.8"/>
      </g>
     </g>
     <g id="text_1">
      <!-- 0.55 -->
      <g transform="translate(42.867188 395.578438) scale(0.1 -0.1)">
       <defs>
        <path id="DejaVuSans-30" d="M 2034 4250 
Q 1547 4250 1301 3770 
Q 1056 3291 1056 2328 
Q 1056 1369 1301 889 
Q 1547 409 2034 409 
Q 2525 409 2770 889 
Q 3016 1369 3016 2328 
Q 3016 3291 2770 3770 
Q 2525 4250 2034 4250 
z
M 2034 4750 
Q 2819 4750 3233 4129 
Q 3647 3509 3647 2328 
Q 3647 1150 3233 529 
Q 2819 -91 2034 -91 
Q 1250 -91 836 529 
Q 422 1150 422 2328 
Q 422 3509 836 4129 
Q 1250 4750 2034 4750 
z
" transform="scale(0.015625)"/>
        <path id="DejaVuSans-2e" d="M 684 794 
L 1344 794 
L 1344 0 
L 684 0 
L 684 794 
z
" transform="scale(0.015625)"/>
        <path id="DejaVuSans-35" d="M 691 4666 
L 3169 4666 
L 3169 4134 
L 1269 4134 
L 1269 2991 
Q 1406 3038 1543 3061 
Q 1681 3084 1819 3084 
Q 2600 3084 3056 2656 
Q 3513 2228 3513 1497 
Q 3513 744 3044 326 
Q 2575 -91 1722 -91 
Q 1428 -91 1123 -41 
Q 819 9 494 109 
L 494 744 
Q 775 591 1075 516 
Q 1375 441 1709 441 
Q 2250 441 2565 725 
Q 2881 1009 2881 1497 
Q 2881 1984 2565 2268 
Q 2250 2553 1709 2553 
Q 1456 2553 1204 2497 
Q 953 2441 691 2322 
L 691 4666 
z
" transform="scale(0.015625)"/>
       </defs>
       <use xlink:href="#DejaVuSans-30"/>
       <use xlink:href="#DejaVuSans-2e" x="63.623047"/>
       <use xlink:href="#DejaVuSans-35" x="95.410156"/>
       <use xlink:href="#DejaVuSans-35" x="159.033203"/>
      </g>
     </g>
    </g>
    <g id="xtick_2">
     <g id="line2d_3">
      <path d="M 91.2 384.48 
L 91.2 51.84 
" clip-path="url(#pcce95a43ee)" style="fill: none; stroke: #b0b0b0; stroke-width: 0.8; stroke-linecap: square"/>
     </g>
     <g id="line2d_4">
      <g>
       <use xlink:href="#mbeab1e2a26" x="91.2" y="384.48" style="stroke: #000000; stroke-width: 0.8"/>
      </g>
     </g>
     <g id="text_2">
      <!-- 0.60 -->
      <g transform="translate(80.067188 395.578438) scale(0.1 -0.1)">
       <defs>
        <path id="DejaVuSans-36" d="M 2113 2584 
Q 1688 2584 1439 2293 
Q 1191 2003 1191 1497 
Q 1191 994 1439 701 
Q 1688 409 2113 409 
Q 2538 409 2786 701 
Q 3034 994 3034 1497 
Q 3034 2003 2786 2293 
Q 2538 2584 2113 2584 
z
M 3366 4563 
L 3366 3988 
Q 3128 4100 2886 4159 
Q 2644 4219 2406 4219 
Q 1781 4219 1451 3797 
Q 1122 3375 1075 2522 
Q 1259 2794 1537 2939 
Q 1816 3084 2150 3084 
Q 2853 3084 3261 2657 
Q 3669 2231 3669 1497 
Q 3669 778 3244 343 
Q 2819 -91 2113 -91 
Q 1303 -91 875 529 
Q 447 1150 447 2328 
Q 447 3434 972 4092 
Q 1497 4750 2381 4750 
Q 2619 4750 2861 4703 
Q 3103 4656 3366 4563 
z
" transform="scale(0.015625)"/>
       </defs>
       <use xlink:href="#DejaVuSans-30"/>
       <use xlink:href="#DejaVuSans-2e" x="63.623047"/>
       <use xlink:href="#DejaVuSans-36" x="95.410156"/>
       <use xlink:href="#DejaVuSans-30" x="159.033203"/>
      </g>
     </g>
    </g>
    <g id="xtick_3">
     <g id="line2d_5">
      <path d="M 128.4 384.48 
L 128.4 51.84 
" clip-path="url(#pcce95a43ee)" style="fill: none; stroke: #b0b0b0; stroke-width: 0.8; stroke-linecap: square"/>
     </g>
     <g id="line2d_6">
      <g>
       <use xlink:href="#mbeab1e2a26" x="128.4" y="384.48" style="stroke: #000000; stroke-width: 0.8"/>
      </g>
     </g>
     <g id="text_3">
      <!-- 0.65 -->
      <g transform="translate(117.267188 395.578438) scale(0.1 -0.1)">
       <use xlink:href="#DejaVuSans-30"/>
       <use xlink:href="#DejaVuSans-2e" x="63.623047"/>
       <use xlink:href="#DejaVuSans-36" x="95.410156"/>
       <use xlink:href="#DejaVuSans-35" x="159.033203"/>
      </g>
     </g>
    </g>
    <g id="xtick_4">
     <g id="line2d_7">
      <path d="M 165.6 384.48 
L 165.6 51.84 
" clip-path="url(#pcce95a43ee)" style="fill: none; stroke: #b0b0b0; stroke-width: 0.8; stroke-linecap: square"/>
     </g>
     <g id="line2d_8">
      <g>
       <use xlink:href="#mbeab1e2a26" x="165.6" y="384.48" style="stroke: #000000; stroke-width: 0.8"/>
      </g>
     </g>
     <g id="text_4">
      <!-- 0.70 -->
      <g transform="translate(154.467188 395.578438) scale(0.1 -0.1)">
       <defs>
        <path id="DejaVuSans-37" d="M 525 4666 
L 3525 4666 
L 3525 4397 
L 1831 0 
L 1172 0 
L 2766 4134 
L 525 4134 
L 525 4666 
z
" transform="scale(0.015625)"/>
       </defs>
       <use xlink:href="#DejaVuSans-30"/>
       <use xlink:href="#DejaVuSans-2e" x="63.623047"/>
       <use xlink:href="#DejaVuSans-37" x="95.410156"/>
       <use xlink:href="#DejaVuSans-30" x="159.033203"/>
      </g>
     </g>
    </g>
    <g id="xtick_5">
     <g id="line2d_9">
      <path d="M 202.8 384.48 
L 202.8 51.84 
" clip-path="url(#pcce95a43ee)" style="fill: none; stroke: #b0b0b0; stroke-width: 0.8; stroke-linecap: square"/>
     </g>
     <g id="line2d_10">
      <g>
       <use xlink:href="#mbeab1e2a26" x="202.8" y="384.48" style="stroke: #000000; stroke-width: 0.8"/>
      </g>
     </g>
     <g id="text_5">
      <!-- 0.75 -->
      <g transform="translate(191.667188 395.578438) scale(0.1 -0.1)">
       <use xlink:href="#DejaVuSans-30"/>
       <use xlink:href="#DejaVuSans-2e" x="63.623047"/>
       <use xlink:href="#DejaVuSans-37" x="95.410156"/>
       <use xlink:href="#DejaVuSans-35" x="159.033203"/>
      </g>
     </g>
    </g>
    <g id="xtick_6">
     <g id="line2d_11">
      <path d="M 240 384.48 
L 240 51.84 
" clip-path="url(#pcce95a43ee)" style="fill: none; stroke: #b0b0b0; stroke-width: 0.8; stroke-linecap: square"/>
     </g>
     <g id="line2d_12">
      <g>
       <use xlink:href="#mbeab1e2a26" x="240" y="384.48" style="stroke: #000000; stroke-width: 0.8"/>
      </g>
     </g>
     <g id="text_6">
      <!-- 0.80 -->
      <g transform="translate(228.867188 395.578438) scale(0.1 -0.1)">
       <defs>
        <path id="DejaVuSans-38" d="M 2034 2216 
Q 1584 2216 1326 1975 
Q 1069 1734 1069 1313 
Q 1069 891 1326 650 
Q 1584 409 2034 409 
Q 2484 409 2743 651 
Q 3003 894 3003 1313 
Q 3003 1734 2745 1975 
Q 2488 2216 2034 2216 
z
M 1403 2484 
Q 997 2584 770 2862 
Q 544 3141 544 3541 
Q 544 4100 942 4425 
Q 1341 4750 2034 4750 
Q 2731 4750 3128 4425 
Q 3525 4100 3525 3541 
Q 3525 3141 3298 2862 
Q 3072 2584 2669 2484 
Q 3125 2378 3379 2068 
Q 3634 1759 3634 1313 
Q 3634 634 3220 271 
Q 2806 -91 2034 -91 
Q 1263 -91 848 271 
Q 434 634 434 1313 
Q 434 1759 690 2068 
Q 947 2378 1403 2484 
z
M 1172 3481 
Q 1172 3119 1398 2916 
Q 1625 2713 2034 2713 
Q 2441 2713 2670 2916 
Q 2900 3119 2900 3481 
Q 2900 3844 2670 4047 
Q 2441 4250 2034 4250 
Q 1625 4250 1398 4047 
Q 1172 3844 1172 3481 
z
" transform="scale(0.015625)"/>
       </defs>
       <use xlink:href="#DejaVuSans-30"/>
       <use xlink:href="#DejaVuSans-2e" x="63.623047"/>
       <use xlink:href="#DejaVuSans-38" x="95.410156"/>
       <use xlink:href="#DejaVuSans-30" x="159.033203"/>
      </g>
     </g>
    </g>
    <g id="xtick_7">
     <g id="line2d_13">
      <path d="M 277.2 384.48 
L 277.2 51.84 
" clip-path="url(#pcce95a43ee)" style="fill: none; stroke: #b0b0b0; stroke-width: 0.8; stroke-linecap: square"/>
     </g>
     <g id="line2d_14">
      <g>
       <use xlink:href="#mbeab1e2a26" x="277.2" y="384.48" style="stroke: #000000; stroke-width: 0.8"/>
      </g>
     </g>
     <g id="text_7">
      <!-- 0.85 -->
      <g transform="translate(266.067188 395.578438) scale(0.1 -0.1)">
       <use xlink:href="#DejaVuSans-30"/>
       <use xlink:href="#DejaVuSans-2e" x="63.623047"/>
       <use xlink:href="#DejaVuSans-38" x="95.410156"/>
       <use xlink:href="#DejaVuSans-35" x="159.033203"/>
      </g>
     </g>
    </g>
    <g id="xtick_8">
     <g id="line2d_15">
      <path d="M 314.4 384.48 
L 314.4 51.84 
" clip-path="url(#pcce95a43ee)" style="fill: none; stroke: #b0b0b0; stroke-width: 0.8; stroke-linecap: square"/>
     </g>
     <g id="line2d_16">
      <g>
       <use xlink:href="#mbeab1e2a26" x="314.4" y="384.48" style="stroke: #000000; stroke-width: 0.8"/>
      </g>
     </g>
     <g id="text_8">
      <!-- 0.90 -->
      <g transform="translate(303.267188 395.578438) scale(0.1 -0.1)">
       <defs>
        <path id="DejaVuSans-39" d="M 703 97 
L 703 672 
Q 941 559 1184 500 
Q 1428 441 1663 441 
Q 2288 441 2617 861 
Q 2947 1281 2994 2138 
Q 2813 1869 2534 1725 
Q 2256 1581 1919 1581 
Q 1219 1581 811 2004 
Q 403 2428 403 3163 
Q 403 3881 828 4315 
Q 1253 4750 1959 4750 
Q 2769 4750 3195 4129 
Q 3622 3509 3622 2328 
Q 3622 1225 3098 567 
Q 2575 -91 1691 -91 
Q 1453 -91 1209 -44 
Q 966 3 703 97 
z
M 1959 2075 
Q 2384 2075 2632 2365 
Q 2881 2656 2881 3163 
Q 2881 3666 2632 3958 
Q 2384 4250 1959 4250 
Q 1534 4250 1286 3958 
Q 1038 3666 1038 3163 
Q 1038 2656 1286 2365 
Q 1534 2075 1959 2075 
z
" transform="scale(0.015625)"/>
       </defs>
       <use xlink:href="#DejaVuSans-30"/>
       <use xlink:href="#DejaVuSans-2e" x="63.623047"/>
       <use xlink:href="#DejaVuSans-39" x="95.410156"/>
       <use xlink:href="#DejaVuSans-30" x="159.033203"/>
      </g>
     </g>
    </g>
    <g id="xtick_9">
     <g id="line2d_17">
      <path d="M 351.6 384.48 
L 351.6 51.84 
" clip-path="url(#pcce95a43ee)" style="fill: none; stroke: #b0b0b0; stroke-width: 0.8; stroke-linecap: square"/>
     </g>
     <g id="line2d_18">
      <g>
       <use xlink:href="#mbeab1e2a26" x="351.6" y="384.48" style="stroke: #000000; stroke-width: 0.8"/>
      </g>
     </g>
     <g id="text_9">
      <!-- 0.95 -->
      <g transform="translate(340.467188 395.578438) scale(0.1 -0.1)">
       <use xlink:href="#DejaVuSans-30"/>
       <use xlink:href="#DejaVuSans-2e" x="63.623047"/>
       <use xlink:href="#DejaVuSans-39" x="95.410156"/>
       <use xlink:href="#DejaVuSans-35" x="159.033203"/>
      </g>
     </g>
    </g>
    <g id="xtick_10">
     <g id="line2d_19">
      <path d="M 388.8 384.48 
L 388.8 51.84 
" clip-path="url(#pcce95a43ee)" style="fill: none; stroke: #b0b0b0; stroke-width: 0.8; stroke-linecap: square"/>
     </g>
     <g id="line2d_20">
      <g>
       <use xlink:href="#mbeab1e2a26" x="388.8" y="384.48" style="stroke: #000000; stroke-width: 0.8"/>
      </g>
     </g>
     <g id="text_10">
      <!-- 1.00 -->
      <g transform="translate(377.667188 395.578438) scale(0.1 -0.1)">
       <defs>
        <path id="DejaVuSans-31" d="M 794 531 
L 1825 531 
L 1825 4091 
L 703 3866 
L 703 4441 
L 1819 4666 
L 2450 4666 
L 2450 531 
L 3481 531 
L 3481 0 
L 794 0 
L 794 531 
z
" transform="scale(0.015625)"/>
       </defs>
       <use xlink:href="#DejaVuSans-31"/>
       <use xlink:href="#DejaVuSans-2e" x="63.623047"/>
       <use xlink:href="#DejaVuSans-30" x="95.410156"/>
       <use xlink:href="#DejaVuSans-30" x="159.033203"/>
      </g>
     </g>
    </g>
    <g id="text_11">
     <!-- $x_{\rm{CO2}}$ -->
     <g transform="translate(210.85 409.256563) scale(0.1 -0.1)">
      <defs>
       <path id="DejaVuSans-Oblique-78" d="M 3841 3500 
L 2234 1784 
L 3219 0 
L 2559 0 
L 1819 1388 
L 531 0 
L -166 0 
L 1556 1844 
L 641 3500 
L 1300 3500 
L 1972 2234 
L 3144 3500 
L 3841 3500 
z
" transform="scale(0.015625)"/>
       <path id="DejaVuSans-43" d="M 4122 4306 
L 4122 3641 
Q 3803 3938 3442 4084 
Q 3081 4231 2675 4231 
Q 1875 4231 1450 3742 
Q 1025 3253 1025 2328 
Q 1025 1406 1450 917 
Q 1875 428 2675 428 
Q 3081 428 3442 575 
Q 3803 722 4122 1019 
L 4122 359 
Q 3791 134 3420 21 
Q 3050 -91 2638 -91 
Q 1578 -91 968 557 
Q 359 1206 359 2328 
Q 359 3453 968 4101 
Q 1578 4750 2638 4750 
Q 3056 4750 3426 4639 
Q 3797 4528 4122 4306 
z
" transform="scale(0.015625)"/>
       <path id="DejaVuSans-4f" d="M 2522 4238 
Q 1834 4238 1429 3725 
Q 1025 3213 1025 2328 
Q 1025 1447 1429 934 
Q 1834 422 2522 422 
Q 3209 422 3611 934 
Q 4013 1447 4013 2328 
Q 4013 3213 3611 3725 
Q 3209 4238 2522 4238 
z
M 2522 4750 
Q 3503 4750 4090 4092 
Q 4678 3434 4678 2328 
Q 4678 1225 4090 567 
Q 3503 -91 2522 -91 
Q 1538 -91 948 565 
Q 359 1222 359 2328 
Q 359 3434 948 4092 
Q 1538 4750 2522 4750 
z
" transform="scale(0.015625)"/>
       <path id="DejaVuSans-32" d="M 1228 531 
L 3431 531 
L 3431 0 
L 469 0 
L 469 531 
Q 828 903 1448 1529 
Q 2069 2156 2228 2338 
Q 2531 2678 2651 2914 
Q 2772 3150 2772 3378 
Q 2772 3750 2511 3984 
Q 2250 4219 1831 4219 
Q 1534 4219 1204 4116 
Q 875 4013 500 3803 
L 500 4441 
Q 881 4594 1212 4672 
Q 1544 4750 1819 4750 
Q 2544 4750 2975 4387 
Q 3406 4025 3406 3419 
Q 3406 3131 3298 2873 
Q 3191 2616 2906 2266 
Q 2828 2175 2409 1742 
Q 1991 1309 1228 531 
z
" transform="scale(0.015625)"/>
      </defs>
      <use xlink:href="#DejaVuSans-Oblique-78" transform="translate(0 0.3125)"/>
      <use xlink:href="#DejaVuSans-43" transform="translate(59.179688 -16.09375) scale(0.7)"/>
      <use xlink:href="#DejaVuSans-4f" transform="translate(108.056641 -16.09375) scale(0.7)"/>
      <use xlink:href="#DejaVuSans-32" transform="translate(163.154297 -16.09375) scale(0.7)"/>
     </g>
    </g>
   </g>
   <g id="matplotlib.axis_2">
    <g id="ytick_1">
     <g id="line2d_21">
      <path d="M 54 354.24 
L 388.8 354.24 
" clip-path="url(#pcce95a43ee)" style="fill: none; stroke: #b0b0b0; stroke-width: 0.8; stroke-linecap: square"/>
     </g>
     <g id="line2d_22">
      <defs>
       <path id="maa4b4c3eb2" d="M 0 0 
L 3.5 0 
" style="stroke: #000000; stroke-width: 0.8"/>
      </defs>
      <g>
       <use xlink:href="#maa4b4c3eb2" x="54" y="354.24" style="stroke: #000000; stroke-width: 0.8"/>
      </g>
     </g>
     <g id="text_12">
      <!-- 4 -->
      <g transform="translate(44.1375 358.039219) scale(0.1 -0.1)">
       <defs>
        <path id="DejaVuSans-34" d="M 2419 4116 
L 825 1625 
L 2419 1625 
L 2419 4116 
z
M 2253 4666 
L 3047 4666 
L 3047 1625 
L 3713 1625 
L 3713 1100 
L 3047 1100 
L 3047 0 
L 2419 0 
L 2419 1100 
L 313 1100 
L 313 1709 
L 2253 4666 
z
" transform="scale(0.015625)"/>
       </defs>
       <use xlink:href="#DejaVuSans-34"/>
      </g>
     </g>
    </g>
    <g id="ytick_2">
     <g id="line2d_23">
      <path d="M 54 293.76 
L 388.8 293.76 
" clip-path="url(#pcce95a43ee)" style="fill: none; stroke: #b0b0b0; stroke-width: 0.8; stroke-linecap: square"/>
     </g>
     <g id="line2d_24">
      <g>
       <use xlink:href="#maa4b4c3eb2" x="54" y="293.76" style="stroke: #000000; stroke-width: 0.8"/>
      </g>
     </g>
     <g id="text_13">
      <!-- 6 -->
      <g transform="translate(44.1375 297.559219) scale(0.1 -0.1)">
       <use xlink:href="#DejaVuSans-36"/>
      </g>
     </g>
    </g>
    <g id="ytick_3">
     <g id="line2d_25">
      <path d="M 54 233.28 
L 388.8 233.28 
" clip-path="url(#pcce95a43ee)" style="fill: none; stroke: #b0b0b0; stroke-width: 0.8; stroke-linecap: square"/>
     </g>
     <g id="line2d_26">
      <g>
       <use xlink:href="#maa4b4c3eb2" x="54" y="233.28" style="stroke: #000000; stroke-width: 0.8"/>
      </g>
     </g>
     <g id="text_14">
      <!-- 8 -->
      <g transform="translate(44.1375 237.079219) scale(0.1 -0.1)">
       <use xlink:href="#DejaVuSans-38"/>
      </g>
     </g>
    </g>
    <g id="ytick_4">
     <g id="line2d_27">
      <path d="M 54 172.8 
L 388.8 172.8 
" clip-path="url(#pcce95a43ee)" style="fill: none; stroke: #b0b0b0; stroke-width: 0.8; stroke-linecap: square"/>
     </g>
     <g id="line2d_28">
      <g>
       <use xlink:href="#maa4b4c3eb2" x="54" y="172.8" style="stroke: #000000; stroke-width: 0.8"/>
      </g>
     </g>
     <g id="text_15">
      <!-- 10 -->
      <g transform="translate(37.775 176.599219) scale(0.1 -0.1)">
       <use xlink:href="#DejaVuSans-31"/>
       <use xlink:href="#DejaVuSans-30" x="63.623047"/>
      </g>
     </g>
    </g>
    <g id="ytick_5">
     <g id="line2d_29">
      <path d="M 54 112.32 
L 388.8 112.32 
" clip-path="url(#pcce95a43ee)" style="fill: none; stroke: #b0b0b0; stroke-width: 0.8; stroke-linecap: square"/>
     </g>
     <g id="line2d_30">
      <g>
       <use xlink:href="#maa4b4c3eb2" x="54" y="112.32" style="stroke: #000000; stroke-width: 0.8"/>
      </g>
     </g>
     <g id="text_16">
      <!-- 12 -->
      <g transform="translate(37.775 116.119219) scale(0.1 -0.1)">
       <use xlink:href="#DejaVuSans-31"/>
       <use xlink:href="#DejaVuSans-32" x="63.623047"/>
      </g>
     </g>
    </g>
    <g id="ytick_6">
     <g id="line2d_31">
      <path d="M 54 51.84 
L 388.8 51.84 
" clip-path="url(#pcce95a43ee)" style="fill: none; stroke: #b0b0b0; stroke-width: 0.8; stroke-linecap: square"/>
     </g>
     <g id="line2d_32">
      <g>
       <use xlink:href="#maa4b4c3eb2" x="54" y="51.84" style="stroke: #000000; stroke-width: 0.8"/>
      </g>
     </g>
     <g id="text_17">
      <!-- 14 -->
      <g transform="translate(37.775 55.639219) scale(0.1 -0.1)">
       <use xlink:href="#DejaVuSans-31"/>
       <use xlink:href="#DejaVuSans-34" x="63.623047"/>
      </g>
     </g>
    </g>
    <g id="text_18">
     <!-- $P (MPa)$ -->
     <g transform="translate(31.695312 235.51) rotate(-90) scale(0.1 -0.1)">
      <defs>
       <path id="DejaVuSans-Oblique-50" d="M 1081 4666 
L 2541 4666 
Q 3178 4666 3512 4369 
Q 3847 4072 3847 3500 
Q 3847 2731 3353 2303 
Q 2859 1875 1966 1875 
L 1172 1875 
L 806 0 
L 172 0 
L 1081 4666 
z
M 1613 4147 
L 1275 2394 
L 2069 2394 
Q 2606 2394 2893 2669 
Q 3181 2944 3181 3456 
Q 3181 3784 2986 3965 
Q 2791 4147 2438 4147 
L 1613 4147 
z
" transform="scale(0.015625)"/>
       <path id="DejaVuSans-28" d="M 1984 4856 
Q 1566 4138 1362 3434 
Q 1159 2731 1159 2009 
Q 1159 1288 1364 580 
Q 1569 -128 1984 -844 
L 1484 -844 
Q 1016 -109 783 600 
Q 550 1309 550 2009 
Q 550 2706 781 3412 
Q 1013 4119 1484 4856 
L 1984 4856 
z
" transform="scale(0.015625)"/>
       <path id="DejaVuSans-Oblique-4d" d="M 1081 4666 
L 2028 4666 
L 2572 1522 
L 4378 4666 
L 5350 4666 
L 4441 0 
L 3828 0 
L 4622 4091 
L 2791 897 
L 2175 897 
L 1581 4103 
L 788 0 
L 172 0 
L 1081 4666 
z
" transform="scale(0.015625)"/>
       <path id="DejaVuSans-Oblique-61" d="M 3438 1997 
L 3047 0 
L 2472 0 
L 2578 531 
Q 2325 219 2001 64 
Q 1678 -91 1281 -91 
Q 834 -91 548 182 
Q 263 456 263 884 
Q 263 1497 752 1853 
Q 1241 2209 2100 2209 
L 2900 2209 
L 2931 2363 
Q 2938 2388 2941 2417 
Q 2944 2447 2944 2509 
Q 2944 2788 2717 2942 
Q 2491 3097 2081 3097 
Q 1800 3097 1504 3025 
Q 1209 2953 897 2809 
L 997 3341 
Q 1322 3463 1633 3523 
Q 1944 3584 2234 3584 
Q 2853 3584 3176 3315 
Q 3500 3047 3500 2534 
Q 3500 2431 3484 2292 
Q 3469 2153 3438 1997 
z
M 2816 1759 
L 2241 1759 
Q 1534 1759 1195 1570 
Q 856 1381 856 984 
Q 856 709 1029 553 
Q 1203 397 1509 397 
Q 1978 397 2328 733 
Q 2678 1069 2791 1631 
L 2816 1759 
z
" transform="scale(0.015625)"/>
       <path id="DejaVuSans-29" d="M 513 4856 
L 1013 4856 
Q 1481 4119 1714 3412 
Q 1947 2706 1947 2009 
Q 1947 1309 1714 600 
Q 1481 -109 1013 -844 
L 513 -844 
Q 928 -128 1133 580 
Q 1338 1288 1338 2009 
Q 1338 2731 1133 3434 
Q 928 4138 513 4856 
z
" transform="scale(0.015625)"/>
      </defs>
      <use xlink:href="#DejaVuSans-Oblique-50" transform="translate(0 0.125)"/>
      <use xlink:href="#DejaVuSans-28" transform="translate(60.302734 0.125)"/>
      <use xlink:href="#DejaVuSans-Oblique-4d" transform="translate(99.316406 0.125)"/>
      <use xlink:href="#DejaVuSans-Oblique-50" transform="translate(185.595703 0.125)"/>
      <use xlink:href="#DejaVuSans-Oblique-61" transform="translate(245.898438 0.125)"/>
      <use xlink:href="#DejaVuSans-29" transform="translate(307.177734 0.125)"/>
     </g>
    </g>
   </g>
   <g id="line2d_33">
    <path d="M 388.8 370.301015 
L 378.818086 350.904528 
L 369.035781 332.358651 
L 359.540822 314.811139 
L 349.82097 297.327073 
L 340.875231 281.678396 
L 331.808757 266.266284 
L 323.255372 252.152985 
L 314.282149 237.806682 
L 306.090685 225.134391 
L 297.626208 212.478737 
L 289.616965 200.927507 
L 283.088441 191.825765 
L 274.940648 180.873966 
L 267.993052 171.903243 
L 260.77622 162.954565 
L 254.084076 155.003196 
L 247.964177 148.032472 
L 242.464545 142.020207 
L 235.835197 135.099147 
L 229.742263 129.062071 
L 224.295284 123.93595 
L 217.965094 118.310342 
L 212.627171 113.852663 
L 207.738735 110.007558 
L 202.086132 105.853561 
L 197.841412 102.946951 
L 193.381856 100.096416 
L 188.923726 97.461672 
L 184.467103 95.050084 
L 180.012083 92.869747 
L 175.558779 90.92961 
L 171.107326 89.239633 
L 166.657884 87.810976 
L 162.210644 86.656236 
L 157.765838 85.789758 
L 153.323748 85.228032 
L 148.884721 84.990214 
L 148.010366 84.983424 
L 148.010366 84.983424 
" clip-path="url(#pcce95a43ee)" style="fill: none; stroke: #0000ff; stroke-width: 1.5; stroke-linecap: square"/>
   </g>
   <g id="line2d_34">
    <path d="M 388.8 370.301015 
L 373.091202 366.979059 
L 357.921789 363.566381 
L 342.343132 359.82972 
L 328.991929 356.42044 
L 315.642716 352.800393 
L 302.295722 348.947386 
L 288.951224 344.83565 
L 277.832953 341.189951 
L 266.716875 337.323408 
L 255.603266 333.212496 
L 244.492458 328.829743 
L 235.606099 325.106241 
L 226.722044 321.168765 
L 217.840596 316.99483 
L 208.962123 312.55811 
L 200.087081 307.827454 
L 193.433388 304.064402 
L 186.782238 300.096596 
L 180.13399 295.902334 
L 173.489086 291.456011 
L 166.848081 286.727046 
L 160.211676 281.678396 
L 153.580789 276.26443 
L 149.163848 272.424454 
L 144.750359 268.376153 
L 140.340905 264.094603 
L 135.936234 259.549494 
L 131.537321 254.703312 
L 127.145475 249.508628 
L 122.762509 243.903905 
L 118.391032 237.806682 
L 114.035001 231.101795 
L 110.535014 225.134391 
L 108.023239 220.446022 
L 105.48302 215.266702 
L 102.956187 209.550836 
L 100.385921 202.945449 
L 98.257063 196.591097 
L 96.876875 191.825765 
L 95.572745 186.597599 
L 94.39487 180.873966 
L 93.571807 175.824193 
L 92.856758 169.808619 
L 92.514178 165.336886 
L 92.327742 160.471526 
L 92.35583 155.003196 
L 92.618216 149.884165 
L 93.203002 144.101634 
L 93.837826 139.860497 
L 94.772897 135.099147 
L 95.874245 130.656327 
L 97.389125 125.70162 
L 98.695114 122.114408 
L 100.735055 117.356245 
L 102.493377 113.852663 
L 104.716815 110.007558 
L 106.51985 107.269027 
L 108.63261 104.411506 
L 111.082004 101.495144 
L 113.722704 98.751626 
L 116.523536 96.227496 
L 119.485112 93.930471 
L 122.608874 91.869056 
L 125.897171 90.052685 
L 129.353371 88.491889 
L 132.982001 87.198514 
L 136.788939 86.185989 
L 140.78166 85.469673 
L 144.969569 85.067315 
L 148.010366 84.983424 
L 148.010366 84.983424 
" clip-path="url(#pcce95a43ee)" style="fill: none; stroke: #ff0000; stroke-width: 1.5; stroke-linecap: square"/>
   </g>
   <g id="line2d_35">
    <path d="M 388.8 339.268419 
L 379.818477 323.186637 
L 371.344136 308.438394 
L 362.692434 293.822394 
L 354.420456 280.278848 
L 346.286201 267.38596 
L 338.871795 256.013858 
L 331.411273 244.949085 
L 324.183095 234.602851 
L 316.081406 223.459647 
L 309.578478 214.874709 
L 303.690355 207.387319 
L 296.143905 198.20308 
L 289.355752 190.352664 
L 283.262373 183.65132 
L 277.917002 178.052699 
L 273.008332 173.150943 
L 267.31991 167.768922 
L 263.04243 163.941356 
L 258.582471 160.159565 
L 254.124674 156.601665 
L 249.669203 153.277425 
L 245.21626 150.197896 
L 240.766094 147.375686 
L 236.319011 144.825336 
L 231.875401 142.563805 
L 227.435755 140.611146 
L 223.000708 138.991432 
L 218.571096 137.734096 
L 214.148049 136.875908 
L 211.939453 136.610709 
L 208.292999 136.436108 
L 208.292999 136.436108 
" clip-path="url(#pcce95a43ee)" style="fill: none; stroke: #0000ff; stroke-width: 1.5; stroke-linecap: square"/>
   </g>
   <g id="line2d_36">
    <path d="M 388.8 339.268419 
L 377.096066 335.702524 
L 364.99413 331.805468 
L 353.877792 328.019091 
L 342.763942 324.015389 
L 331.652916 319.771681 
L 320.545123 315.261429 
L 311.661555 311.440423 
L 302.780699 307.410022 
L 293.902942 303.148275 
L 285.028765 298.629334 
L 276.158771 293.822394 
L 269.509475 290.006082 
L 262.863368 285.988253 
L 256.220957 281.746789 
L 249.582878 277.255246 
L 242.94995 272.481528 
L 236.323251 267.38596 
L 229.704238 261.918422 
L 225.296804 258.035429 
L 220.894486 253.9343 
L 216.498351 249.584896 
L 212.10984 244.949085 
L 207.730966 239.977294 
L 203.364657 234.602851 
L 199.018627 228.736624 
L 195.471769 223.459647 
L 192.94641 219.357916 
L 190.414006 214.874709 
L 187.921665 209.987862 
L 185.529552 204.679782 
L 183.684977 199.977208 
L 182.441785 196.35489 
L 181.272314 192.430709 
L 180.222229 188.196594 
L 179.348317 183.65132 
L 178.798632 179.576471 
L 178.4559 174.839674 
L 178.422008 171.408478 
L 178.601382 167.768922 
L 179.055059 163.941356 
L 179.807258 160.159565 
L 180.838503 156.601665 
L 182.144827 153.277425 
L 183.724288 150.197896 
L 185.577128 147.375686 
L 187.706025 144.825336 
L 190.116473 142.563805 
L 192.817326 140.611146 
L 194.28053 139.757976 
L 195.821601 138.991432 
L 197.44301 138.31537 
L 199.147667 137.734096 
L 200.938997 137.252451 
L 202.821032 136.875908 
L 204.798534 136.610709 
L 208.292999 136.436108 
L 208.292999 136.436108 
" clip-path="url(#pcce95a43ee)" style="fill: none; stroke: #ff0000; stroke-width: 1.5; stroke-linecap: square"/>
   </g>
   <g id="line2d_37">
    <path d="M 388.8 301.870391 
L 388.799256 301.869203 
L 388.603573 301.556639 
L 388.329214 301.118874 
L 387.953244 300.519866 
L 387.557537 299.890522 
L 387.141014 299.229303 
L 386.702531 298.534594 
L 386.240882 297.804702 
L 385.754786 297.03785 
L 385.24289 296.232175 
L 384.703759 295.385727 
L 384.135874 294.496463 
L 383.537627 293.562244 
L 382.907312 292.580837 
L 382.243124 291.549904 
L 381.54315 290.467011 
L 380.805362 289.329618 
L 380.044035 288.160261 
L 379.267979 286.972819 
L 378.476623 285.766709 
L 377.669359 284.541311 
L 376.845542 283.29597 
L 376.004479 282.029993 
L 375.145433 280.742643 
L 374.267613 279.433136 
L 373.370169 278.100636 
L 372.452189 276.744252 
L 371.512688 275.36303 
L 370.550601 273.955946 
L 369.564777 272.521901 
L 368.553964 271.059709 
L 367.516797 269.568088 
L 366.451786 268.045651 
L 365.357295 266.490887 
L 364.231527 264.902151 
L 363.072493 263.277636 
L 361.877988 261.615362 
L 360.645553 259.913135 
L 359.372434 258.168525 
L 358.055525 256.378818 
L 356.691309 254.540969 
L 355.275768 252.651537 
L 353.804282 250.706605 
L 352.271491 248.701679 
L 350.671118 246.631553 
L 348.995727 244.490133 
L 347.236405 242.270198 
L 345.385582 239.967121 
L 343.439237 237.581543 
L 341.393384 235.114949 
L 339.244138 232.569834 
L 338.128215 231.267356 
L 336.790316 229.723183 
L 335.386384 228.123478 
L 333.913679 226.468535 
L 332.369469 224.759108 
L 330.751058 222.9965 
L 329.055833 221.182662 
L 327.281302 219.320307 
L 325.425166 217.413046 
L 323.485382 215.465535 
L 321.460263 213.483643 
L 319.348583 211.474652 
L 317.14971 209.447461 
L 314.929174 207.469988 
L 312.710239 205.566905 
L 310.49306 203.741569 
L 308.27782 201.997768 
L 306.064741 200.339818 
L 303.854089 198.772671 
L 301.646191 197.30207 
L 299.44145 195.934752 
L 297.240373 194.678717 
L 295.043611 193.543612 
L 292.852013 192.541273 
L 290.666713 191.686525 
L 288.489279 190.998415 
L 286.326015 190.502904 
L 284.199808 190.234661 
L 283.126856 190.19754 
" clip-path="url(#pcce95a43ee)" style="fill: none; stroke: #0000ff; stroke-width: 1.5; stroke-linecap: square"/>
   </g>
   <g id="line2d_38">
    <path d="M 388.8 301.870391 
L 388.797324 301.869203 
L 388.095222 301.556639 
L 387.11673 301.118874 
L 385.786927 300.519866 
L 384.401018 299.890522 
L 382.957216 299.229303 
L 381.453744 298.534594 
L 379.888843 297.804702 
L 378.260781 297.03785 
L 376.567868 296.232175 
L 374.808467 295.385727 
L 372.98101 294.496463 
L 371.084017 293.562244 
L 369.116111 292.580837 
L 367.076041 291.549904 
L 364.962705 290.467011 
L 362.775177 289.329618 
L 360.560053 288.160261 
L 358.345326 286.972819 
L 356.131016 285.766709 
L 353.917146 284.541311 
L 351.70374 283.29597 
L 349.490822 282.029993 
L 347.27842 280.742643 
L 345.066565 279.433136 
L 342.855291 278.100636 
L 340.644632 276.744252 
L 338.434628 275.36303 
L 336.225324 273.955946 
L 334.016767 272.521901 
L 331.809011 271.059709 
L 329.602114 269.568088 
L 327.396143 268.045651 
L 325.191172 266.490887 
L 322.987283 264.902151 
L 320.784571 263.277636 
L 318.583143 261.615362 
L 316.38312 259.913135 
L 314.184644 258.168525 
L 311.987876 256.378818 
L 309.793007 254.540969 
L 307.60026 252.651537 
L 305.409899 250.706605 
L 303.222244 248.701679 
L 301.03768 246.631553 
L 298.856682 244.490133 
L 296.679845 242.270198 
L 294.511659 239.967121 
L 292.362499 237.581543 
L 290.243967 235.114949 
L 288.168978 232.569834 
L 287.151012 231.267356 
L 285.98301 229.723183 
L 284.817885 228.123478 
L 283.661184 226.468535 
L 282.519151 224.759108 
L 281.398787 222.9965 
L 280.307904 221.182662 
L 279.255188 219.320307 
L 278.250262 217.413046 
L 277.303745 215.465535 
L 276.427314 213.483643 
L 275.633759 211.474652 
L 274.937036 209.447461 
L 274.367068 207.469988 
L 273.931608 205.566905 
L 273.630963 203.741569 
L 273.466097 201.997768 
L 273.438722 200.339818 
L 273.551433 198.772671 
L 273.807869 197.30207 
L 274.212951 195.934752 
L 274.773194 194.678717 
L 275.49715 193.543612 
L 276.396052 192.541273 
L 277.484757 191.686525 
L 278.7832 190.998415 
L 280.315594 190.502904 
L 282.101011 190.234661 
L 283.126856 190.19754 
" clip-path="url(#pcce95a43ee)" style="fill: none; stroke: #ff0000; stroke-width: 1.5; stroke-linecap: square"/>
   </g>
   <g id="patch_3">
    <path d="M 54 384.48 
L 54 51.84 
" style="fill: none; stroke: #000000; stroke-width: 0.8; stroke-linejoin: miter; stroke-linecap: square"/>
   </g>
   <g id="patch_4">
    <path d="M 388.8 384.48 
L 388.8 51.84 
" style="fill: none; stroke: #000000; stroke-width: 0.8; stroke-linejoin: miter; stroke-linecap: square"/>
   </g>
   <g id="patch_5">
    <path d="M 54 384.48 
L 388.8 384.48 
" style="fill: none; stroke: #000000; stroke-width: 0.8; stroke-linejoin: miter; stroke-linecap: square"/>
   </g>
   <g id="patch_6">
    <path d="M 54 51.84 
L 388.8 51.84 
" style="fill: none; stroke: #000000; stroke-width: 0.8; stroke-linejoin: miter; stroke-linecap: square"/>
   </g>
   <g id="text_19">
    <!-- 0 °C -->
    <g style="fill: #ff0000" transform="translate(111.871812 248.073946) rotate(-320) scale(0.1 -0.1)">
     <defs>
      <path id="DejaVuSans-20" transform="scale(0.015625)"/>
      <path id="DejaVuSans-b0" d="M 1600 4347 
Q 1350 4347 1178 4173 
Q 1006 4000 1006 3750 
Q 1006 3503 1178 3333 
Q 1350 3163 1600 3163 
Q 1850 3163 2022 3333 
Q 2194 3503 2194 3750 
Q 2194 3997 2020 4172 
Q 1847 4347 1600 4347 
z
M 1600 4750 
Q 1800 4750 1984 4673 
Q 2169 4597 2303 4453 
Q 2447 4313 2519 4134 
Q 2591 3956 2591 3750 
Q 2591 3338 2302 3052 
Q 2013 2766 1594 2766 
Q 1172 2766 890 3047 
Q 609 3328 609 3750 
Q 609 4169 896 4459 
Q 1184 4750 1600 4750 
z
" transform="scale(0.015625)"/>
     </defs>
     <use xlink:href="#DejaVuSans-30"/>
     <use xlink:href="#DejaVuSans-20" x="63.623047"/>
     <use xlink:href="#DejaVuSans-b0" x="95.410156"/>
     <use xlink:href="#DejaVuSans-43" x="145.410156"/>
    </g>
   </g>
   <g id="text_20">
    <!-- 10 °C -->
    <g style="fill: #ff0000" transform="translate(200.355424 247.586444) rotate(-320) scale(0.1 -0.1)">
     <use xlink:href="#DejaVuSans-31"/>
     <use xlink:href="#DejaVuSans-30" x="63.623047"/>
     <use xlink:href="#DejaVuSans-20" x="127.246094"/>
     <use xlink:href="#DejaVuSans-b0" x="159.033203"/>
     <use xlink:href="#DejaVuSans-43" x="209.033203"/>
    </g>
   </g>
   <g id="text_21">
    <!-- 20 °C -->
    <g style="fill: #ff0000" transform="translate(295.848457 258.81694) rotate(-320) scale(0.1 -0.1)">
     <use xlink:href="#DejaVuSans-32"/>
     <use xlink:href="#DejaVuSans-30" x="63.623047"/>
     <use xlink:href="#DejaVuSans-20" x="127.246094"/>
     <use xlink:href="#DejaVuSans-b0" x="159.033203"/>
     <use xlink:href="#DejaVuSans-43" x="209.033203"/>
    </g>
   </g>
   <g id="legend_1">
    <g id="patch_7">
     <path d="M 283.776563 89.19625 
L 381.8 89.19625 
Q 383.8 89.19625 383.8 87.19625 
L 383.8 58.84 
Q 383.8 56.84 381.8 56.84 
L 283.776563 56.84 
Q 281.776563 56.84 281.776563 58.84 
L 281.776563 87.19625 
Q 281.776563 89.19625 283.776563 89.19625 
z
" style="fill: #ffffff; opacity: 0.8; stroke: #cccccc; stroke-linejoin: miter"/>
    </g>
    <g id="line2d_39">
     <path d="M 285.776563 64.938437 
L 295.776563 64.938437 
L 305.776563 64.938437 
" style="fill: none; stroke: #0000ff; stroke-width: 1.5; stroke-linecap: square"/>
    </g>
    <g id="text_22">
     <!-- Bubble curve -->
     <g transform="translate(313.776563 68.438437) scale(0.1 -0.1)">
      <defs>
       <path id="DejaVuSans-42" d="M 1259 2228 
L 1259 519 
L 2272 519 
Q 2781 519 3026 730 
Q 3272 941 3272 1375 
Q 3272 1813 3026 2020 
Q 2781 2228 2272 2228 
L 1259 2228 
z
M 1259 4147 
L 1259 2741 
L 2194 2741 
Q 2656 2741 2882 2914 
Q 3109 3088 3109 3444 
Q 3109 3797 2882 3972 
Q 2656 4147 2194 4147 
L 1259 4147 
z
M 628 4666 
L 2241 4666 
Q 2963 4666 3353 4366 
Q 3744 4066 3744 3513 
Q 3744 3084 3544 2831 
Q 3344 2578 2956 2516 
Q 3422 2416 3680 2098 
Q 3938 1781 3938 1306 
Q 3938 681 3513 340 
Q 3088 0 2303 0 
L 628 0 
L 628 4666 
z
" transform="scale(0.015625)"/>
       <path id="DejaVuSans-75" d="M 544 1381 
L 544 3500 
L 1119 3500 
L 1119 1403 
Q 1119 906 1312 657 
Q 1506 409 1894 409 
Q 2359 409 2629 706 
Q 2900 1003 2900 1516 
L 2900 3500 
L 3475 3500 
L 3475 0 
L 2900 0 
L 2900 538 
Q 2691 219 2414 64 
Q 2138 -91 1772 -91 
Q 1169 -91 856 284 
Q 544 659 544 1381 
z
M 1991 3584 
L 1991 3584 
z
" transform="scale(0.015625)"/>
       <path id="DejaVuSans-62" d="M 3116 1747 
Q 3116 2381 2855 2742 
Q 2594 3103 2138 3103 
Q 1681 3103 1420 2742 
Q 1159 2381 1159 1747 
Q 1159 1113 1420 752 
Q 1681 391 2138 391 
Q 2594 391 2855 752 
Q 3116 1113 3116 1747 
z
M 1159 2969 
Q 1341 3281 1617 3432 
Q 1894 3584 2278 3584 
Q 2916 3584 3314 3078 
Q 3713 2572 3713 1747 
Q 3713 922 3314 415 
Q 2916 -91 2278 -91 
Q 1894 -91 1617 61 
Q 1341 213 1159 525 
L 1159 0 
L 581 0 
L 581 4863 
L 1159 4863 
L 1159 2969 
z
" transform="scale(0.015625)"/>
       <path id="DejaVuSans-6c" d="M 603 4863 
L 1178 4863 
L 1178 0 
L 603 0 
L 603 4863 
z
" transform="scale(0.015625)"/>
       <path id="DejaVuSans-65" d="M 3597 1894 
L 3597 1613 
L 953 1613 
Q 991 1019 1311 708 
Q 1631 397 2203 397 
Q 2534 397 2845 478 
Q 3156 559 3463 722 
L 3463 178 
Q 3153 47 2828 -22 
Q 2503 -91 2169 -91 
Q 1331 -91 842 396 
Q 353 884 353 1716 
Q 353 2575 817 3079 
Q 1281 3584 2069 3584 
Q 2775 3584 3186 3129 
Q 3597 2675 3597 1894 
z
M 3022 2063 
Q 3016 2534 2758 2815 
Q 2500 3097 2075 3097 
Q 1594 3097 1305 2825 
Q 1016 2553 972 2059 
L 3022 2063 
z
" transform="scale(0.015625)"/>
       <path id="DejaVuSans-63" d="M 3122 3366 
L 3122 2828 
Q 2878 2963 2633 3030 
Q 2388 3097 2138 3097 
Q 1578 3097 1268 2742 
Q 959 2388 959 1747 
Q 959 1106 1268 751 
Q 1578 397 2138 397 
Q 2388 397 2633 464 
Q 2878 531 3122 666 
L 3122 134 
Q 2881 22 2623 -34 
Q 2366 -91 2075 -91 
Q 1284 -91 818 406 
Q 353 903 353 1747 
Q 353 2603 823 3093 
Q 1294 3584 2113 3584 
Q 2378 3584 2631 3529 
Q 2884 3475 3122 3366 
z
" transform="scale(0.015625)"/>
       <path id="DejaVuSans-72" d="M 2631 2963 
Q 2534 3019 2420 3045 
Q 2306 3072 2169 3072 
Q 1681 3072 1420 2755 
Q 1159 2438 1159 1844 
L 1159 0 
L 581 0 
L 581 3500 
L 1159 3500 
L 1159 2956 
Q 1341 3275 1631 3429 
Q 1922 3584 2338 3584 
Q 2397 3584 2469 3576 
Q 2541 3569 2628 3553 
L 2631 2963 
z
" transform="scale(0.015625)"/>
       <path id="DejaVuSans-76" d="M 191 3500 
L 800 3500 
L 1894 563 
L 2988 3500 
L 3597 3500 
L 2284 0 
L 1503 0 
L 191 3500 
z
" transform="scale(0.015625)"/>
      </defs>
      <use xlink:href="#DejaVuSans-42"/>
      <use xlink:href="#DejaVuSans-75" x="68.603516"/>
      <use xlink:href="#DejaVuSans-62" x="131.982422"/>
      <use xlink:href="#DejaVuSans-62" x="195.458984"/>
      <use xlink:href="#DejaVuSans-6c" x="258.935547"/>
      <use xlink:href="#DejaVuSans-65" x="286.71875"/>
      <use xlink:href="#DejaVuSans-20" x="348.242188"/>
      <use xlink:href="#DejaVuSans-63" x="380.029297"/>
      <use xlink:href="#DejaVuSans-75" x="435.009766"/>
      <use xlink:href="#DejaVuSans-72" x="498.388672"/>
      <use xlink:href="#DejaVuSans-76" x="539.501953"/>
      <use xlink:href="#DejaVuSans-65" x="598.681641"/>
     </g>
    </g>
    <g id="line2d_40">
     <path d="M 285.776563 79.616562 
L 295.776563 79.616562 
L 305.776563 79.616562 
" style="fill: none; stroke: #ff0000; stroke-width: 1.5; stroke-linecap: square"/>
    </g>
    <g id="text_23">
     <!-- Dew curve -->
     <g transform="translate(313.776563 83.116562) scale(0.1 -0.1)">
      <defs>
       <path id="DejaVuSans-44" d="M 1259 4147 
L 1259 519 
L 2022 519 
Q 2988 519 3436 956 
Q 3884 1394 3884 2338 
Q 3884 3275 3436 3711 
Q 2988 4147 2022 4147 
L 1259 4147 
z
M 628 4666 
L 1925 4666 
Q 3281 4666 3915 4102 
Q 4550 3538 4550 2338 
Q 4550 1131 3912 565 
Q 3275 0 1925 0 
L 628 0 
L 628 4666 
z
" transform="scale(0.015625)"/>
       <path id="DejaVuSans-77" d="M 269 3500 
L 844 3500 
L 1563 769 
L 2278 3500 
L 2956 3500 
L 3675 769 
L 4391 3500 
L 4966 3500 
L 4050 0 
L 3372 0 
L 2619 2869 
L 1863 0 
L 1184 0 
L 269 3500 
z
" transform="scale(0.015625)"/>
      </defs>
      <use xlink:href="#DejaVuSans-44"/>
      <use xlink:href="#DejaVuSans-65" x="77.001953"/>
      <use xlink:href="#DejaVuSans-77" x="138.525391"/>
      <use xlink:href="#DejaVuSans-20" x="220.3125"/>
      <use xlink:href="#DejaVuSans-63" x="252.099609"/>
      <use xlink:href="#DejaVuSans-75" x="307.080078"/>
      <use xlink:href="#DejaVuSans-72" x="370.458984"/>
      <use xlink:href="#DejaVuSans-76" x="411.572266"/>
      <use xlink:href="#DejaVuSans-65" x="470.751953"/>
     </g>
    </g>
   </g>
  </g>
 </g>
 <defs>
  <clipPath id="pcce95a43ee">
   <rect x="54" y="51.84" width="334.8" height="332.64"/>
  </clipPath>
 </defs>
</svg>
