<?xml version="1.0" encoding="utf-8" standalone="no"?>
<!DOCTYPE svg PUBLIC "-//W3C//DTD SVG 1.1//EN"
  "http://www.w3.org/Graphics/SVG/1.1/DTD/svg11.dtd">
<svg xmlns:xlink="http://www.w3.org/1999/xlink" width="432pt" height="432pt" viewBox="0 0 432 432" xmlns="http://www.w3.org/2000/svg" version="1.1">
 <metadata>
  <rdf:RDF xmlns:dc="http://purl.org/dc/elements/1.1/" xmlns:cc="http://creativecommons.org/ns#" xmlns:rdf="http://www.w3.org/1999/02/22-rdf-syntax-ns#">
   <cc:Work>
    <dc:type rdf:resource="http://purl.org/dc/dcmitype/StillImage"/>
    <dc:date>2024-05-23T15:48:24.923447</dc:date>
    <dc:format>image/svg+xml</dc:format>
    <dc:creator>
     <cc:Agent>
      <dc:title>Matplotlib v3.8.4, https://matplotlib.org/</dc:title>
     </cc:Agent>
    </dc:creator>
   </cc:Work>
  </rdf:RDF>
 </metadata>
 <defs>
  <style type="text/css">*{stroke-linejoin: round; stroke-linecap: butt}</style>
 </defs>
 <g id="figure_1">
  <g id="patch_1">
   <path d="M 0 432 
L 432 432 
L 432 0 
L 0 0 
z
" style="fill: #ffffff"/>
  </g>
  <g id="axes_1">
   <g id="patch_2">
    <path d="M 54 384.48 
L 388.8 384.48 
L 388.8 51.84 
L 54 51.84 
z
" style="fill: #ffffff"/>
   </g>
   <g id="matplotlib.axis_1">
    <g id="xtick_1">
     <g id="line2d_1">
      <path d="M 54 384.48 
L 54 51.84 
" clip-path="url(#p2f35752669)" style="fill: none; stroke: #b0b0b0; stroke-width: 0.8; stroke-linecap: square"/>
     </g>
     <g id="line2d_2">
      <defs>
       <path id="ma5c68fa2a3" d="M 0 0 
L 0 -3.5 
" style="stroke: #000000; stroke-width: 0.8"/>
      </defs>
      <g>
       <use xlink:href="#ma5c68fa2a3" x="54" y="384.48" style="stroke: #000000; stroke-width: 0.8"/>
      </g>
     </g>
     <g id="text_1">
      <!-- 0.60 -->
      <g transform="translate(42.867188 395.578438) scale(0.1 -0.1)">
       <defs>
        <path id="DejaVuSans-30" d="M 2034 4250 
Q 1547 4250 1301 3770 
Q 1056 3291 1056 2328 
Q 1056 1369 1301 889 
Q 1547 409 2034 409 
Q 2525 409 2770 889 
Q 3016 1369 3016 2328 
Q 3016 3291 2770 3770 
Q 2525 4250 2034 4250 
z
M 2034 4750 
Q 2819 4750 3233 4129 
Q 3647 3509 3647 2328 
Q 3647 1150 3233 529 
Q 2819 -91 2034 -91 
Q 1250 -91 836 529 
Q 422 1150 422 2328 
Q 422 3509 836 4129 
Q 1250 4750 2034 4750 
z
" transform="scale(0.015625)"/>
        <path id="DejaVuSans-2e" d="M 684 794 
L 1344 794 
L 1344 0 
L 684 0 
L 684 794 
z
" transform="scale(0.015625)"/>
        <path id="DejaVuSans-36" d="M 2113 2584 
Q 1688 2584 1439 2293 
Q 1191 2003 1191 1497 
Q 1191 994 1439 701 
Q 1688 409 2113 409 
Q 2538 409 2786 701 
Q 3034 994 3034 1497 
Q 3034 2003 2786 2293 
Q 2538 2584 2113 2584 
z
M 3366 4563 
L 3366 3988 
Q 3128 4100 2886 4159 
Q 2644 4219 2406 4219 
Q 1781 4219 1451 3797 
Q 1122 3375 1075 2522 
Q 1259 2794 1537 2939 
Q 1816 3084 2150 3084 
Q 2853 3084 3261 2657 
Q 3669 2231 3669 1497 
Q 3669 778 3244 343 
Q 2819 -91 2113 -91 
Q 1303 -91 875 529 
Q 447 1150 447 2328 
Q 447 3434 972 4092 
Q 1497 4750 2381 4750 
Q 2619 4750 2861 4703 
Q 3103 4656 3366 4563 
z
" transform="scale(0.015625)"/>
       </defs>
       <use xlink:href="#DejaVuSans-30"/>
       <use xlink:href="#DejaVuSans-2e" x="63.623047"/>
       <use xlink:href="#DejaVuSans-36" x="95.410156"/>
       <use xlink:href="#DejaVuSans-30" x="159.033203"/>
      </g>
     </g>
    </g>
    <g id="xtick_2">
     <g id="line2d_3">
      <path d="M 95.85 384.48 
L 95.85 51.84 
" clip-path="url(#p2f35752669)" style="fill: none; stroke: #b0b0b0; stroke-width: 0.8; stroke-linecap: square"/>
     </g>
     <g id="line2d_4">
      <g>
       <use xlink:href="#ma5c68fa2a3" x="95.85" y="384.48" style="stroke: #000000; stroke-width: 0.8"/>
      </g>
     </g>
     <g id="text_2">
      <!-- 0.65 -->
      <g transform="translate(84.717188 395.578438) scale(0.1 -0.1)">
       <defs>
        <path id="DejaVuSans-35" d="M 691 4666 
L 3169 4666 
L 3169 4134 
L 1269 4134 
L 1269 2991 
Q 1406 3038 1543 3061 
Q 1681 3084 1819 3084 
Q 2600 3084 3056 2656 
Q 3513 2228 3513 1497 
Q 3513 744 3044 326 
Q 2575 -91 1722 -91 
Q 1428 -91 1123 -41 
Q 819 9 494 109 
L 494 744 
Q 775 591 1075 516 
Q 1375 441 1709 441 
Q 2250 441 2565 725 
Q 2881 1009 2881 1497 
Q 2881 1984 2565 2268 
Q 2250 2553 1709 2553 
Q 1456 2553 1204 2497 
Q 953 2441 691 2322 
L 691 4666 
z
" transform="scale(0.015625)"/>
       </defs>
       <use xlink:href="#DejaVuSans-30"/>
       <use xlink:href="#DejaVuSans-2e" x="63.623047"/>
       <use xlink:href="#DejaVuSans-36" x="95.410156"/>
       <use xlink:href="#DejaVuSans-35" x="159.033203"/>
      </g>
     </g>
    </g>
    <g id="xtick_3">
     <g id="line2d_5">
      <path d="M 137.7 384.48 
L 137.7 51.84 
" clip-path="url(#p2f35752669)" style="fill: none; stroke: #b0b0b0; stroke-width: 0.8; stroke-linecap: square"/>
     </g>
     <g id="line2d_6">
      <g>
       <use xlink:href="#ma5c68fa2a3" x="137.7" y="384.48" style="stroke: #000000; stroke-width: 0.8"/>
      </g>
     </g>
     <g id="text_3">
      <!-- 0.70 -->
      <g transform="translate(126.567188 395.578438) scale(0.1 -0.1)">
       <defs>
        <path id="DejaVuSans-37" d="M 525 4666 
L 3525 4666 
L 3525 4397 
L 1831 0 
L 1172 0 
L 2766 4134 
L 525 4134 
L 525 4666 
z
" transform="scale(0.015625)"/>
       </defs>
       <use xlink:href="#DejaVuSans-30"/>
       <use xlink:href="#DejaVuSans-2e" x="63.623047"/>
       <use xlink:href="#DejaVuSans-37" x="95.410156"/>
       <use xlink:href="#DejaVuSans-30" x="159.033203"/>
      </g>
     </g>
    </g>
    <g id="xtick_4">
     <g id="line2d_7">
      <path d="M 179.55 384.48 
L 179.55 51.84 
" clip-path="url(#p2f35752669)" style="fill: none; stroke: #b0b0b0; stroke-width: 0.8; stroke-linecap: square"/>
     </g>
     <g id="line2d_8">
      <g>
       <use xlink:href="#ma5c68fa2a3" x="179.55" y="384.48" style="stroke: #000000; stroke-width: 0.8"/>
      </g>
     </g>
     <g id="text_4">
      <!-- 0.75 -->
      <g transform="translate(168.417187 395.578438) scale(0.1 -0.1)">
       <use xlink:href="#DejaVuSans-30"/>
       <use xlink:href="#DejaVuSans-2e" x="63.623047"/>
       <use xlink:href="#DejaVuSans-37" x="95.410156"/>
       <use xlink:href="#DejaVuSans-35" x="159.033203"/>
      </g>
     </g>
    </g>
    <g id="xtick_5">
     <g id="line2d_9">
      <path d="M 221.4 384.48 
L 221.4 51.84 
" clip-path="url(#p2f35752669)" style="fill: none; stroke: #b0b0b0; stroke-width: 0.8; stroke-linecap: square"/>
     </g>
     <g id="line2d_10">
      <g>
       <use xlink:href="#ma5c68fa2a3" x="221.4" y="384.48" style="stroke: #000000; stroke-width: 0.8"/>
      </g>
     </g>
     <g id="text_5">
      <!-- 0.80 -->
      <g transform="translate(210.267187 395.578438) scale(0.1 -0.1)">
       <defs>
        <path id="DejaVuSans-38" d="M 2034 2216 
Q 1584 2216 1326 1975 
Q 1069 1734 1069 1313 
Q 1069 891 1326 650 
Q 1584 409 2034 409 
Q 2484 409 2743 651 
Q 3003 894 3003 1313 
Q 3003 1734 2745 1975 
Q 2488 2216 2034 2216 
z
M 1403 2484 
Q 997 2584 770 2862 
Q 544 3141 544 3541 
Q 544 4100 942 4425 
Q 1341 4750 2034 4750 
Q 2731 4750 3128 4425 
Q 3525 4100 3525 3541 
Q 3525 3141 3298 2862 
Q 3072 2584 2669 2484 
Q 3125 2378 3379 2068 
Q 3634 1759 3634 1313 
Q 3634 634 3220 271 
Q 2806 -91 2034 -91 
Q 1263 -91 848 271 
Q 434 634 434 1313 
Q 434 1759 690 2068 
Q 947 2378 1403 2484 
z
M 1172 3481 
Q 1172 3119 1398 2916 
Q 1625 2713 2034 2713 
Q 2441 2713 2670 2916 
Q 2900 3119 2900 3481 
Q 2900 3844 2670 4047 
Q 2441 4250 2034 4250 
Q 1625 4250 1398 4047 
Q 1172 3844 1172 3481 
z
" transform="scale(0.015625)"/>
       </defs>
       <use xlink:href="#DejaVuSans-30"/>
       <use xlink:href="#DejaVuSans-2e" x="63.623047"/>
       <use xlink:href="#DejaVuSans-38" x="95.410156"/>
       <use xlink:href="#DejaVuSans-30" x="159.033203"/>
      </g>
     </g>
    </g>
    <g id="xtick_6">
     <g id="line2d_11">
      <path d="M 263.25 384.48 
L 263.25 51.84 
" clip-path="url(#p2f35752669)" style="fill: none; stroke: #b0b0b0; stroke-width: 0.8; stroke-linecap: square"/>
     </g>
     <g id="line2d_12">
      <g>
       <use xlink:href="#ma5c68fa2a3" x="263.25" y="384.48" style="stroke: #000000; stroke-width: 0.8"/>
      </g>
     </g>
     <g id="text_6">
      <!-- 0.85 -->
      <g transform="translate(252.117188 395.578438) scale(0.1 -0.1)">
       <use xlink:href="#DejaVuSans-30"/>
       <use xlink:href="#DejaVuSans-2e" x="63.623047"/>
       <use xlink:href="#DejaVuSans-38" x="95.410156"/>
       <use xlink:href="#DejaVuSans-35" x="159.033203"/>
      </g>
     </g>
    </g>
    <g id="xtick_7">
     <g id="line2d_13">
      <path d="M 305.1 384.48 
L 305.1 51.84 
" clip-path="url(#p2f35752669)" style="fill: none; stroke: #b0b0b0; stroke-width: 0.8; stroke-linecap: square"/>
     </g>
     <g id="line2d_14">
      <g>
       <use xlink:href="#ma5c68fa2a3" x="305.1" y="384.48" style="stroke: #000000; stroke-width: 0.8"/>
      </g>
     </g>
     <g id="text_7">
      <!-- 0.90 -->
      <g transform="translate(293.967188 395.578438) scale(0.1 -0.1)">
       <defs>
        <path id="DejaVuSans-39" d="M 703 97 
L 703 672 
Q 941 559 1184 500 
Q 1428 441 1663 441 
Q 2288 441 2617 861 
Q 2947 1281 2994 2138 
Q 2813 1869 2534 1725 
Q 2256 1581 1919 1581 
Q 1219 1581 811 2004 
Q 403 2428 403 3163 
Q 403 3881 828 4315 
Q 1253 4750 1959 4750 
Q 2769 4750 3195 4129 
Q 3622 3509 3622 2328 
Q 3622 1225 3098 567 
Q 2575 -91 1691 -91 
Q 1453 -91 1209 -44 
Q 966 3 703 97 
z
M 1959 2075 
Q 2384 2075 2632 2365 
Q 2881 2656 2881 3163 
Q 2881 3666 2632 3958 
Q 2384 4250 1959 4250 
Q 1534 4250 1286 3958 
Q 1038 3666 1038 3163 
Q 1038 2656 1286 2365 
Q 1534 2075 1959 2075 
z
" transform="scale(0.015625)"/>
       </defs>
       <use xlink:href="#DejaVuSans-30"/>
       <use xlink:href="#DejaVuSans-2e" x="63.623047"/>
       <use xlink:href="#DejaVuSans-39" x="95.410156"/>
       <use xlink:href="#DejaVuSans-30" x="159.033203"/>
      </g>
     </g>
    </g>
    <g id="xtick_8">
     <g id="line2d_15">
      <path d="M 346.95 384.48 
L 346.95 51.84 
" clip-path="url(#p2f35752669)" style="fill: none; stroke: #b0b0b0; stroke-width: 0.8; stroke-linecap: square"/>
     </g>
     <g id="line2d_16">
      <g>
       <use xlink:href="#ma5c68fa2a3" x="346.95" y="384.48" style="stroke: #000000; stroke-width: 0.8"/>
      </g>
     </g>
     <g id="text_8">
      <!-- 0.95 -->
      <g transform="translate(335.817188 395.578438) scale(0.1 -0.1)">
       <use xlink:href="#DejaVuSans-30"/>
       <use xlink:href="#DejaVuSans-2e" x="63.623047"/>
       <use xlink:href="#DejaVuSans-39" x="95.410156"/>
       <use xlink:href="#DejaVuSans-35" x="159.033203"/>
      </g>
     </g>
    </g>
    <g id="xtick_9">
     <g id="line2d_17">
      <path d="M 388.8 384.48 
L 388.8 51.84 
" clip-path="url(#p2f35752669)" style="fill: none; stroke: #b0b0b0; stroke-width: 0.8; stroke-linecap: square"/>
     </g>
     <g id="line2d_18">
      <g>
       <use xlink:href="#ma5c68fa2a3" x="388.8" y="384.48" style="stroke: #000000; stroke-width: 0.8"/>
      </g>
     </g>
     <g id="text_9">
      <!-- 1.00 -->
      <g transform="translate(377.667187 395.578438) scale(0.1 -0.1)">
       <defs>
        <path id="DejaVuSans-31" d="M 794 531 
L 1825 531 
L 1825 4091 
L 703 3866 
L 703 4441 
L 1819 4666 
L 2450 4666 
L 2450 531 
L 3481 531 
L 3481 0 
L 794 0 
L 794 531 
z
" transform="scale(0.015625)"/>
       </defs>
       <use xlink:href="#DejaVuSans-31"/>
       <use xlink:href="#DejaVuSans-2e" x="63.623047"/>
       <use xlink:href="#DejaVuSans-30" x="95.410156"/>
       <use xlink:href="#DejaVuSans-30" x="159.033203"/>
      </g>
     </g>
    </g>
    <g id="text_10">
     <!-- $x_{\rm{CO2}}$ -->
     <g transform="translate(210.85 409.256563) scale(0.1 -0.1)">
      <defs>
       <path id="DejaVuSans-Oblique-78" d="M 3841 3500 
L 2234 1784 
L 3219 0 
L 2559 0 
L 1819 1388 
L 531 0 
L -166 0 
L 1556 1844 
L 641 3500 
L 1300 3500 
L 1972 2234 
L 3144 3500 
L 3841 3500 
z
" transform="scale(0.015625)"/>
       <path id="DejaVuSans-43" d="M 4122 4306 
L 4122 3641 
Q 3803 3938 3442 4084 
Q 3081 4231 2675 4231 
Q 1875 4231 1450 3742 
Q 1025 3253 1025 2328 
Q 1025 1406 1450 917 
Q 1875 428 2675 428 
Q 3081 428 3442 575 
Q 3803 722 4122 1019 
L 4122 359 
Q 3791 134 3420 21 
Q 3050 -91 2638 -91 
Q 1578 -91 968 557 
Q 359 1206 359 2328 
Q 359 3453 968 4101 
Q 1578 4750 2638 4750 
Q 3056 4750 3426 4639 
Q 3797 4528 4122 4306 
z
" transform="scale(0.015625)"/>
       <path id="DejaVuSans-4f" d="M 2522 4238 
Q 1834 4238 1429 3725 
Q 1025 3213 1025 2328 
Q 1025 1447 1429 934 
Q 1834 422 2522 422 
Q 3209 422 3611 934 
Q 4013 1447 4013 2328 
Q 4013 3213 3611 3725 
Q 3209 4238 2522 4238 
z
M 2522 4750 
Q 3503 4750 4090 4092 
Q 4678 3434 4678 2328 
Q 4678 1225 4090 567 
Q 3503 -91 2522 -91 
Q 1538 -91 948 565 
Q 359 1222 359 2328 
Q 359 3434 948 4092 
Q 1538 4750 2522 4750 
z
" transform="scale(0.015625)"/>
       <path id="DejaVuSans-32" d="M 1228 531 
L 3431 531 
L 3431 0 
L 469 0 
L 469 531 
Q 828 903 1448 1529 
Q 2069 2156 2228 2338 
Q 2531 2678 2651 2914 
Q 2772 3150 2772 3378 
Q 2772 3750 2511 3984 
Q 2250 4219 1831 4219 
Q 1534 4219 1204 4116 
Q 875 4013 500 3803 
L 500 4441 
Q 881 4594 1212 4672 
Q 1544 4750 1819 4750 
Q 2544 4750 2975 4387 
Q 3406 4025 3406 3419 
Q 3406 3131 3298 2873 
Q 3191 2616 2906 2266 
Q 2828 2175 2409 1742 
Q 1991 1309 1228 531 
z
" transform="scale(0.015625)"/>
      </defs>
      <use xlink:href="#DejaVuSans-Oblique-78" transform="translate(0 0.3125)"/>
      <use xlink:href="#DejaVuSans-43" transform="translate(59.179688 -16.09375) scale(0.7)"/>
      <use xlink:href="#DejaVuSans-4f" transform="translate(108.056641 -16.09375) scale(0.7)"/>
      <use xlink:href="#DejaVuSans-32" transform="translate(163.154297 -16.09375) scale(0.7)"/>
     </g>
    </g>
   </g>
   <g id="matplotlib.axis_2">
    <g id="ytick_1">
     <g id="line2d_19">
      <path d="M 54 351.216 
L 388.8 351.216 
" clip-path="url(#p2f35752669)" style="fill: none; stroke: #b0b0b0; stroke-width: 0.8; stroke-linecap: square"/>
     </g>
     <g id="line2d_20">
      <defs>
       <path id="m44e82501ad" d="M 0 0 
L 3.5 0 
" style="stroke: #000000; stroke-width: 0.8"/>
      </defs>
      <g>
       <use xlink:href="#m44e82501ad" x="54" y="351.216" style="stroke: #000000; stroke-width: 0.8"/>
      </g>
     </g>
     <g id="text_11">
      <!-- 4 -->
      <g transform="translate(44.1375 355.015219) scale(0.1 -0.1)">
       <defs>
        <path id="DejaVuSans-34" d="M 2419 4116 
L 825 1625 
L 2419 1625 
L 2419 4116 
z
M 2253 4666 
L 3047 4666 
L 3047 1625 
L 3713 1625 
L 3713 1100 
L 3047 1100 
L 3047 0 
L 2419 0 
L 2419 1100 
L 313 1100 
L 313 1709 
L 2253 4666 
z
" transform="scale(0.015625)"/>
       </defs>
       <use xlink:href="#DejaVuSans-34"/>
      </g>
     </g>
    </g>
    <g id="ytick_2">
     <g id="line2d_21">
      <path d="M 54 284.688 
L 388.8 284.688 
" clip-path="url(#p2f35752669)" style="fill: none; stroke: #b0b0b0; stroke-width: 0.8; stroke-linecap: square"/>
     </g>
     <g id="line2d_22">
      <g>
       <use xlink:href="#m44e82501ad" x="54" y="284.688" style="stroke: #000000; stroke-width: 0.8"/>
      </g>
     </g>
     <g id="text_12">
      <!-- 6 -->
      <g transform="translate(44.1375 288.487219) scale(0.1 -0.1)">
       <use xlink:href="#DejaVuSans-36"/>
      </g>
     </g>
    </g>
    <g id="ytick_3">
     <g id="line2d_23">
      <path d="M 54 218.16 
L 388.8 218.16 
" clip-path="url(#p2f35752669)" style="fill: none; stroke: #b0b0b0; stroke-width: 0.8; stroke-linecap: square"/>
     </g>
     <g id="line2d_24">
      <g>
       <use xlink:href="#m44e82501ad" x="54" y="218.16" style="stroke: #000000; stroke-width: 0.8"/>
      </g>
     </g>
     <g id="text_13">
      <!-- 8 -->
      <g transform="translate(44.1375 221.959219) scale(0.1 -0.1)">
       <use xlink:href="#DejaVuSans-38"/>
      </g>
     </g>
    </g>
    <g id="ytick_4">
     <g id="line2d_25">
      <path d="M 54 151.632 
L 388.8 151.632 
" clip-path="url(#p2f35752669)" style="fill: none; stroke: #b0b0b0; stroke-width: 0.8; stroke-linecap: square"/>
     </g>
     <g id="line2d_26">
      <g>
       <use xlink:href="#m44e82501ad" x="54" y="151.632" style="stroke: #000000; stroke-width: 0.8"/>
      </g>
     </g>
     <g id="text_14">
      <!-- 10 -->
      <g transform="translate(37.775 155.431219) scale(0.1 -0.1)">
       <use xlink:href="#DejaVuSans-31"/>
       <use xlink:href="#DejaVuSans-30" x="63.623047"/>
      </g>
     </g>
    </g>
    <g id="ytick_5">
     <g id="line2d_27">
      <path d="M 54 85.104 
L 388.8 85.104 
" clip-path="url(#p2f35752669)" style="fill: none; stroke: #b0b0b0; stroke-width: 0.8; stroke-linecap: square"/>
     </g>
     <g id="line2d_28">
      <g>
       <use xlink:href="#m44e82501ad" x="54" y="85.104" style="stroke: #000000; stroke-width: 0.8"/>
      </g>
     </g>
     <g id="text_15">
      <!-- 12 -->
      <g transform="translate(37.775 88.903219) scale(0.1 -0.1)">
       <use xlink:href="#DejaVuSans-31"/>
       <use xlink:href="#DejaVuSans-32" x="63.623047"/>
      </g>
     </g>
    </g>
    <g id="text_16">
     <!-- $P (MPa)$ -->
     <g transform="translate(31.695312 235.51) rotate(-90) scale(0.1 -0.1)">
      <defs>
       <path id="DejaVuSans-Oblique-50" d="M 1081 4666 
L 2541 4666 
Q 3178 4666 3512 4369 
Q 3847 4072 3847 3500 
Q 3847 2731 3353 2303 
Q 2859 1875 1966 1875 
L 1172 1875 
L 806 0 
L 172 0 
L 1081 4666 
z
M 1613 4147 
L 1275 2394 
L 2069 2394 
Q 2606 2394 2893 2669 
Q 3181 2944 3181 3456 
Q 3181 3784 2986 3965 
Q 2791 4147 2438 4147 
L 1613 4147 
z
" transform="scale(0.015625)"/>
       <path id="DejaVuSans-28" d="M 1984 4856 
Q 1566 4138 1362 3434 
Q 1159 2731 1159 2009 
Q 1159 1288 1364 580 
Q 1569 -128 1984 -844 
L 1484 -844 
Q 1016 -109 783 600 
Q 550 1309 550 2009 
Q 550 2706 781 3412 
Q 1013 4119 1484 4856 
L 1984 4856 
z
" transform="scale(0.015625)"/>
       <path id="DejaVuSans-Oblique-4d" d="M 1081 4666 
L 2028 4666 
L 2572 1522 
L 4378 4666 
L 5350 4666 
L 4441 0 
L 3828 0 
L 4622 4091 
L 2791 897 
L 2175 897 
L 1581 4103 
L 788 0 
L 172 0 
L 1081 4666 
z
" transform="scale(0.015625)"/>
       <path id="DejaVuSans-Oblique-61" d="M 3438 1997 
L 3047 0 
L 2472 0 
L 2578 531 
Q 2325 219 2001 64 
Q 1678 -91 1281 -91 
Q 834 -91 548 182 
Q 263 456 263 884 
Q 263 1497 752 1853 
Q 1241 2209 2100 2209 
L 2900 2209 
L 2931 2363 
Q 2938 2388 2941 2417 
Q 2944 2447 2944 2509 
Q 2944 2788 2717 2942 
Q 2491 3097 2081 3097 
Q 1800 3097 1504 3025 
Q 1209 2953 897 2809 
L 997 3341 
Q 1322 3463 1633 3523 
Q 1944 3584 2234 3584 
Q 2853 3584 3176 3315 
Q 3500 3047 3500 2534 
Q 3500 2431 3484 2292 
Q 3469 2153 3438 1997 
z
M 2816 1759 
L 2241 1759 
Q 1534 1759 1195 1570 
Q 856 1381 856 984 
Q 856 709 1029 553 
Q 1203 397 1509 397 
Q 1978 397 2328 733 
Q 2678 1069 2791 1631 
L 2816 1759 
z
" transform="scale(0.015625)"/>
       <path id="DejaVuSans-29" d="M 513 4856 
L 1013 4856 
Q 1481 4119 1714 3412 
Q 1947 2706 1947 2009 
Q 1947 1309 1714 600 
Q 1481 -109 1013 -844 
L 513 -844 
Q 928 -128 1133 580 
Q 1338 1288 1338 2009 
Q 1338 2731 1133 3434 
Q 928 4138 513 4856 
z
" transform="scale(0.015625)"/>
      </defs>
      <use xlink:href="#DejaVuSans-Oblique-50" transform="translate(0 0.125)"/>
      <use xlink:href="#DejaVuSans-28" transform="translate(60.302734 0.125)"/>
      <use xlink:href="#DejaVuSans-Oblique-4d" transform="translate(99.316406 0.125)"/>
      <use xlink:href="#DejaVuSans-Oblique-50" transform="translate(185.595703 0.125)"/>
      <use xlink:href="#DejaVuSans-Oblique-61" transform="translate(245.898438 0.125)"/>
      <use xlink:href="#DejaVuSans-29" transform="translate(307.177734 0.125)"/>
     </g>
    </g>
   </g>
   <g id="line2d_29">
    <path d="M 388.8 368.883117 
L 377.944462 348.249447 
L 367.583823 329.013031 
L 357.228009 310.246313 
L 347.55094 293.139538 
L 338.162062 276.951751 
L 328.796859 261.2189 
L 320.14104 247.056443 
L 311.308194 232.990287 
L 302.619579 219.545081 
L 294.057118 206.685672 
L 286.229483 195.27861 
L 277.219086 182.572257 
L 269.874496 172.560341 
L 263.194976 163.731619 
L 254.664765 152.850199 
L 246.968972 143.422575 
L 238.75426 133.779441 
L 232.217009 126.424582 
L 226.342931 120.063797 
L 219.479069 112.936578 
L 213.46015 106.964871 
L 207.919241 101.703529 
L 201.475821 95.877848 
L 195.354997 90.643869 
L 188.860945 85.42076 
L 183.08757 81.072038 
L 176.415838 76.404656 
L 171.462893 73.196658 
L 166.446684 70.178788 
L 161.432123 67.402246 
L 156.419309 64.875519 
L 151.408359 62.607962 
L 146.399413 60.609953 
L 141.392635 58.893078 
L 136.388222 57.470366 
L 131.386411 56.356588 
L 126.387488 55.56864 
L 121.391804 55.126047 
L 117.911662 55.033767 
L 117.911662 55.033767 
" clip-path="url(#p2f35752669)" style="fill: none; stroke: #0000ff; stroke-width: 1.5; stroke-linecap: square"/>
   </g>
   <g id="line2d_30">
    <path d="M 388.8 368.883117 
L 371.127602 365.228965 
L 354.062013 361.475019 
L 339.039575 357.968716 
L 324.019122 354.25501 
L 309.000867 350.313199 
L 293.985063 346.119453 
L 281.473981 342.412411 
L 268.965014 338.492882 
L 256.458405 334.339748 
L 243.954443 329.92863 
L 233.953409 326.195078 
L 223.9545 322.261602 
L 213.957966 318.109027 
L 203.964102 313.715246 
L 193.973268 309.054553 
L 183.985899 304.096777 
L 176.497966 300.162199 
L 169.012562 296.022842 
L 161.530018 291.658256 
L 154.050739 287.044568 
L 146.575222 282.153612 
L 139.104091 276.951751 
L 131.638136 271.398236 
L 126.664204 267.476225 
L 121.693409 263.358008 
L 116.726219 259.022572 
L 111.763221 254.444913 
L 106.805156 249.594857 
L 101.852983 244.435402 
L 96.907968 238.920284 
L 91.971835 232.990287 
L 87.047018 226.567408 
L 82.137107 219.545081 
L 78.510134 213.864971 
L 75.751891 209.19983 
L 72.926144 204.042624 
L 70.068397 198.345372 
L 67.22571 192.057919 
L 64.334161 184.791994 
L 62.733329 180.24387 
L 61.15518 175.242594 
L 59.638994 169.750789 
L 58.234967 163.731619 
L 56.977891 156.974109 
L 56.106939 150.645567 
L 55.652456 145.934808 
L 55.348183 140.802021 
L 55.247853 135.226452 
L 55.366166 130.256499 
L 55.767799 124.387719 
L 56.253378 120.063797 
L 56.967554 115.398547 
L 58.019509 110.161062 
L 59.258526 105.273959 
L 60.334292 101.703529 
L 61.659744 97.881545 
L 63.286927 93.814337 
L 65.335762 89.401836 
L 67.474245 85.42076 
L 69.206417 82.560314 
L 71.234831 79.54793 
L 73.611687 76.404656 
L 76.367254 73.196658 
L 79.338042 70.178788 
L 82.488978 67.402246 
L 85.820752 64.875519 
L 89.334983 62.607962 
L 93.034317 60.609953 
L 96.922542 58.893078 
L 101.004751 57.470366 
L 105.287557 56.356588 
L 109.779368 55.56864 
L 114.490765 55.126047 
L 117.911662 55.033767 
L 117.911662 55.033767 
" clip-path="url(#p2f35752669)" style="fill: none; stroke: #ff0000; stroke-width: 1.5; stroke-linecap: square"/>
   </g>
   <g id="line2d_31">
    <path d="M 388.8 334.747261 
L 379.223626 317.968928 
L 369.826666 301.949957 
L 361.07622 287.442422 
L 352.146378 273.057688 
L 343.440132 259.455091 
L 335.587363 247.554811 
L 327.78986 236.095386 
L 320.366748 225.527023 
L 313.799368 216.462517 
L 305.307809 205.152464 
L 297.586149 195.283276 
L 289.336372 185.193218 
L 282.798255 177.542379 
L 276.925221 170.93993 
L 270.07017 163.568452 
L 264.056627 157.409969 
L 258.534373 152.018037 
L 252.134899 146.097815 
L 247.322734 141.887491 
L 242.30528 137.727521 
L 237.290258 133.813831 
L 232.277854 130.157168 
L 227.268293 126.769686 
L 222.261855 123.665255 
L 217.258888 120.85987 
L 212.259826 118.372186 
L 207.265224 116.224261 
L 202.275796 114.442575 
L 197.292483 113.059506 
L 194.8035 112.529696 
L 192.316555 112.115499 
L 189.831885 111.823779 
L 185.729624 111.631719 
L 185.729624 111.631719 
" clip-path="url(#p2f35752669)" style="fill: none; stroke: #0000ff; stroke-width: 1.5; stroke-linecap: square"/>
   </g>
   <g id="line2d_32">
    <path d="M 388.8 334.747261 
L 375.633074 330.824776 
L 362.018396 326.538015 
L 349.512516 322.373 
L 337.009435 317.968928 
L 324.50953 313.300849 
L 314.512201 309.356853 
L 304.517482 305.207973 
L 294.525718 300.834233 
L 284.537324 296.212413 
L 274.552811 291.315246 
L 264.572818 286.110343 
L 257.091271 281.981549 
L 249.613148 277.638328 
L 242.138978 273.057688 
L 234.669423 268.212267 
L 227.20533 263.069025 
L 219.747801 257.58739 
L 214.78047 253.720391 
L 209.817267 249.662265 
L 204.858905 245.390972 
L 199.906297 240.87973 
L 194.960645 236.095386 
L 190.02357 230.995994 
L 185.097336 225.527023 
L 180.18524 219.615136 
L 175.295955 213.162287 
L 171.30574 207.357612 
L 168.464712 202.845708 
L 165.615757 197.91418 
L 162.811873 192.538648 
L 160.120746 186.69976 
L 158.0456 181.526929 
L 156.647008 177.542379 
L 155.331354 173.22578 
L 154.150008 168.568253 
L 153.166857 163.568452 
L 152.548461 159.086119 
L 152.253748 155.67312 
L 152.117642 152.018037 
L 152.191672 148.127137 
L 152.538373 144.016545 
L 153.220448 139.777345 
L 154.22433 135.739249 
L 155.539631 131.952648 
L 157.163011 128.428957 
L 159.093483 125.181145 
L 161.332647 122.224086 
L 162.569279 120.85987 
L 163.885037 119.575027 
L 165.281032 118.372186 
L 166.758631 117.254217 
L 168.319491 116.224261 
L 169.965597 115.285774 
L 171.699301 114.442575 
L 173.523386 113.698907 
L 175.441125 113.059506 
L 177.456371 112.529696 
L 179.573661 112.115499 
L 181.798351 111.823779 
L 185.729624 111.631719 
L 185.729624 111.631719 
" clip-path="url(#p2f35752669)" style="fill: none; stroke: #ff0000; stroke-width: 1.5; stroke-linecap: square"/>
   </g>
   <g id="line2d_33">
    <path d="M 388.8 293.609431 
L 388.799163 293.608123 
L 388.579019 293.264302 
L 388.270366 292.782761 
L 387.8474 292.123853 
L 387.402229 291.431574 
L 386.93364 290.704233 
L 386.440348 289.940054 
L 385.920992 289.137172 
L 385.374134 288.293635 
L 384.798251 287.407393 
L 384.191729 286.4763 
L 383.552858 285.498109 
L 382.87983 284.470469 
L 382.170726 283.39092 
L 381.423515 282.256895 
L 380.636044 281.065712 
L 379.806032 279.81458 
L 378.949539 278.528287 
L 378.076476 277.222101 
L 377.1862 275.89538 
L 376.278029 274.547442 
L 375.351234 273.177567 
L 374.405039 271.784992 
L 373.438612 270.368907 
L 372.451065 268.928449 
L 371.441441 267.4627 
L 370.408713 265.970678 
L 369.351774 264.451333 
L 368.269427 262.903541 
L 367.160375 261.326091 
L 366.023209 259.717679 
L 364.856396 258.076897 
L 363.658259 256.402216 
L 362.426957 254.691976 
L 361.160468 252.944366 
L 359.856555 251.1574 
L 358.512737 249.328898 
L 357.126247 247.456448 
L 355.693988 245.537377 
L 354.212466 243.5687 
L 352.677722 241.547066 
L 351.085239 239.468691 
L 349.429817 237.329266 
L 347.705427 235.123847 
L 345.905007 232.846708 
L 344.020193 230.491146 
L 342.040956 228.049217 
L 339.95878 225.515833 
L 337.769141 222.891698 
L 335.467557 220.178444 
L 333.049656 217.378817 
L 331.794242 215.946092 
L 330.289105 214.247502 
L 328.709681 212.487826 
L 327.052889 210.667388 
L 325.315652 208.787019 
L 323.494941 206.84815 
L 321.587812 204.852928 
L 319.591465 202.804338 
L 317.503311 200.706351 
L 315.321055 198.564088 
L 313.042796 196.384008 
L 310.667156 194.174117 
L 308.193423 191.944207 
L 305.695321 189.768987 
L 303.199019 187.675596 
L 300.704692 185.667726 
L 298.212548 183.749545 
L 295.722834 181.9258 
L 293.235851 180.201938 
L 290.751965 178.584277 
L 288.271631 177.080227 
L 285.79542 175.698589 
L 283.324063 174.449973 
L 280.858514 173.3474 
L 278.400052 172.407178 
L 275.950439 171.650256 
L 273.516767 171.105194 
L 271.124784 170.810127 
L 269.917713 170.769294 
" clip-path="url(#p2f35752669)" style="fill: none; stroke: #0000ff; stroke-width: 1.5; stroke-linecap: square"/>
   </g>
   <g id="line2d_34">
    <path d="M 388.8 293.609431 
L 388.796989 293.608123 
L 388.007125 293.264302 
L 386.906321 292.782761 
L 385.410293 292.123853 
L 383.851145 291.431574 
L 382.226868 290.704233 
L 380.535462 289.940054 
L 378.774948 289.137172 
L 376.943378 288.293635 
L 375.038851 287.407393 
L 373.059525 286.4763 
L 371.003636 285.498109 
L 368.869519 284.470469 
L 366.655625 283.39092 
L 364.360546 282.256895 
L 361.983043 281.065712 
L 359.522074 279.81458 
L 357.030059 278.528287 
L 354.538491 277.222101 
L 352.047393 275.89538 
L 349.55679 274.547442 
L 347.066707 273.177567 
L 344.577174 271.784992 
L 342.088223 270.368907 
L 339.599886 268.928449 
L 337.112202 267.4627 
L 334.625211 265.970678 
L 332.138957 264.451333 
L 329.65349 262.903541 
L 327.168863 261.326091 
L 324.685137 259.717679 
L 322.202379 258.076897 
L 319.720661 256.402216 
L 317.240068 254.691976 
L 314.760694 252.944366 
L 312.282643 251.1574 
L 309.806036 249.328898 
L 307.331011 247.456448 
L 304.857725 245.537377 
L 302.386361 243.5687 
L 299.917133 241.547066 
L 297.450292 239.468691 
L 294.986137 237.329266 
L 292.525024 235.123847 
L 290.06739 232.846708 
L 287.613767 230.491146 
L 285.164826 228.049217 
L 282.725617 225.515833 
L 280.307811 222.891698 
L 277.924462 220.178444 
L 275.5901 217.378817 
L 274.444889 215.946092 
L 273.130887 214.247502 
L 271.820121 212.487826 
L 270.518832 210.667388 
L 269.234045 208.787019 
L 267.973636 206.84815 
L 266.746391 204.852928 
L 265.562086 202.804338 
L 264.431544 200.706351 
L 263.366713 198.564088 
L 262.380729 196.384008 
L 261.487979 194.174117 
L 260.704165 191.944207 
L 260.062951 189.768987 
L 259.573059 187.675596 
L 259.234834 185.667726 
L 259.049359 183.749545 
L 259.018562 181.9258 
L 259.145362 180.201938 
L 259.433853 178.584277 
L 259.88957 177.080227 
L 260.519843 175.698589 
L 261.334293 174.449973 
L 262.345558 173.3474 
L 263.570352 172.407178 
L 265.0311 171.650256 
L 266.755044 171.105194 
L 268.763637 170.810127 
L 269.917713 170.769294 
" clip-path="url(#p2f35752669)" style="fill: none; stroke: #ff0000; stroke-width: 1.5; stroke-linecap: square"/>
   </g>
   <g id="patch_3">
    <path d="M 54 384.48 
L 54 51.84 
" style="fill: none; stroke: #000000; stroke-width: 0.8; stroke-linejoin: miter; stroke-linecap: square"/>
   </g>
   <g id="patch_4">
    <path d="M 388.8 384.48 
L 388.8 51.84 
" style="fill: none; stroke: #000000; stroke-width: 0.8; stroke-linejoin: miter; stroke-linecap: square"/>
   </g>
   <g id="patch_5">
    <path d="M 54 384.48 
L 388.8 384.48 
" style="fill: none; stroke: #000000; stroke-width: 0.8; stroke-linejoin: miter; stroke-linecap: square"/>
   </g>
   <g id="patch_6">
    <path d="M 54 51.84 
L 388.8 51.84 
" style="fill: none; stroke: #000000; stroke-width: 0.8; stroke-linejoin: miter; stroke-linecap: square"/>
   </g>
   <g id="text_17">
    <!-- 0 °C -->
    <g style="fill: #ff0000" transform="translate(77.088689 235.768185) rotate(-320) scale(0.1 -0.1)">
     <defs>
      <path id="DejaVuSans-20" transform="scale(0.015625)"/>
      <path id="DejaVuSans-b0" d="M 1600 4347 
Q 1350 4347 1178 4173 
Q 1006 4000 1006 3750 
Q 1006 3503 1178 3333 
Q 1350 3163 1600 3163 
Q 1850 3163 2022 3333 
Q 2194 3503 2194 3750 
Q 2194 3997 2020 4172 
Q 1847 4347 1600 4347 
z
M 1600 4750 
Q 1800 4750 1984 4673 
Q 2169 4597 2303 4453 
Q 2447 4313 2519 4134 
Q 2591 3956 2591 3750 
Q 2591 3338 2302 3052 
Q 2013 2766 1594 2766 
Q 1172 2766 890 3047 
Q 609 3328 609 3750 
Q 609 4169 896 4459 
Q 1184 4750 1600 4750 
z
" transform="scale(0.015625)"/>
     </defs>
     <use xlink:href="#DejaVuSans-30"/>
     <use xlink:href="#DejaVuSans-20" x="63.623047"/>
     <use xlink:href="#DejaVuSans-b0" x="95.410156"/>
     <use xlink:href="#DejaVuSans-43" x="145.410156"/>
    </g>
   </g>
   <g id="text_18">
    <!-- 10 °C -->
    <g style="fill: #ff0000" transform="translate(176.632752 235.640906) rotate(-320) scale(0.1 -0.1)">
     <use xlink:href="#DejaVuSans-31"/>
     <use xlink:href="#DejaVuSans-30" x="63.623047"/>
     <use xlink:href="#DejaVuSans-20" x="127.246094"/>
     <use xlink:href="#DejaVuSans-b0" x="159.033203"/>
     <use xlink:href="#DejaVuSans-43" x="209.033203"/>
    </g>
   </g>
   <g id="text_19">
    <!-- 20 °C -->
    <g style="fill: #ff0000" transform="translate(284.062414 247.994452) rotate(-320) scale(0.1 -0.1)">
     <use xlink:href="#DejaVuSans-32"/>
     <use xlink:href="#DejaVuSans-30" x="63.623047"/>
     <use xlink:href="#DejaVuSans-20" x="127.246094"/>
     <use xlink:href="#DejaVuSans-b0" x="159.033203"/>
     <use xlink:href="#DejaVuSans-43" x="209.033203"/>
    </g>
   </g>
  </g>
 </g>
 <defs>
  <clipPath id="p2f35752669">
   <rect x="54" y="51.84" width="334.8" height="332.64"/>
  </clipPath>
 </defs>
</svg>
